%TF.GenerationSoftware,KiCad,Pcbnew,9.0.2*%
%TF.CreationDate,2025-06-11T21:10:06-03:00*%
%TF.ProjectId,rome,726f6d65-2e6b-4696-9361-645f70636258,0.1*%
%TF.SameCoordinates,Original*%
%TF.FileFunction,Drillmap*%
%TF.FilePolarity,Positive*%
%FSLAX45Y45*%
G04 Gerber Fmt 4.5, Leading zero omitted, Abs format (unit mm)*
G04 Created by KiCad (PCBNEW 9.0.2) date 2025-06-11 21:10:06*
%MOMM*%
%LPD*%
G01*
G04 APERTURE LIST*
%ADD10C,0.050000*%
%ADD11C,0.200000*%
%ADD12C,0.100000*%
%ADD13C,0.110000*%
%ADD14C,0.152000*%
G04 APERTURE END LIST*
D10*
X8890000Y-6350000D02*
X19812000Y-6350000D01*
X19812000Y-14986000D01*
X8890000Y-14986000D01*
X8890000Y-6350000D01*
D11*
D12*
X10364000Y-7316000D02*
X10464000Y-7416000D01*
X10464000Y-7316000D02*
X10364000Y-7416000D01*
X10364000Y-7570000D02*
X10464000Y-7670000D01*
X10464000Y-7570000D02*
X10364000Y-7670000D01*
X10364000Y-7824000D02*
X10464000Y-7924000D01*
X10464000Y-7824000D02*
X10364000Y-7924000D01*
X10364000Y-8078000D02*
X10464000Y-8178000D01*
X10464000Y-8078000D02*
X10364000Y-8178000D01*
X10364000Y-8332000D02*
X10464000Y-8432000D01*
X10464000Y-8332000D02*
X10364000Y-8432000D01*
X10364000Y-8586000D02*
X10464000Y-8686000D01*
X10464000Y-8586000D02*
X10364000Y-8686000D01*
X10364000Y-8840000D02*
X10464000Y-8940000D01*
X10464000Y-8840000D02*
X10364000Y-8940000D01*
X10364000Y-9094000D02*
X10464000Y-9194000D01*
X10464000Y-9094000D02*
X10364000Y-9194000D01*
X10364000Y-9348000D02*
X10464000Y-9448000D01*
X10464000Y-9348000D02*
X10364000Y-9448000D01*
X10364000Y-9602000D02*
X10464000Y-9702000D01*
X10464000Y-9602000D02*
X10364000Y-9702000D01*
X10364000Y-9856000D02*
X10464000Y-9956000D01*
X10464000Y-9856000D02*
X10364000Y-9956000D01*
X10364000Y-10110000D02*
X10464000Y-10210000D01*
X10464000Y-10110000D02*
X10364000Y-10210000D01*
X10364000Y-10364000D02*
X10464000Y-10464000D01*
X10464000Y-10364000D02*
X10364000Y-10464000D01*
X10364000Y-10618000D02*
X10464000Y-10718000D01*
X10464000Y-10618000D02*
X10364000Y-10718000D01*
X10364000Y-10872000D02*
X10464000Y-10972000D01*
X10464000Y-10872000D02*
X10364000Y-10972000D01*
X10364000Y-12396000D02*
X10464000Y-12496000D01*
X10464000Y-12396000D02*
X10364000Y-12496000D01*
X10364000Y-12650000D02*
X10464000Y-12750000D01*
X10464000Y-12650000D02*
X10364000Y-12750000D01*
X10364000Y-12904000D02*
X10464000Y-13004000D01*
X10464000Y-12904000D02*
X10364000Y-13004000D01*
X10364000Y-13158000D02*
X10464000Y-13258000D01*
X10464000Y-13158000D02*
X10364000Y-13258000D01*
X10364000Y-13412000D02*
X10464000Y-13512000D01*
X10464000Y-13412000D02*
X10364000Y-13512000D01*
X10364000Y-13666000D02*
X10464000Y-13766000D01*
X10464000Y-13666000D02*
X10364000Y-13766000D01*
X11380000Y-7316000D02*
X11480000Y-7416000D01*
X11480000Y-7316000D02*
X11380000Y-7416000D01*
X11380000Y-7570000D02*
X11480000Y-7670000D01*
X11480000Y-7570000D02*
X11380000Y-7670000D01*
X11380000Y-7824000D02*
X11480000Y-7924000D01*
X11480000Y-7824000D02*
X11380000Y-7924000D01*
X11380000Y-8078000D02*
X11480000Y-8178000D01*
X11480000Y-8078000D02*
X11380000Y-8178000D01*
X11380000Y-8332000D02*
X11480000Y-8432000D01*
X11480000Y-8332000D02*
X11380000Y-8432000D01*
X11380000Y-8586000D02*
X11480000Y-8686000D01*
X11480000Y-8586000D02*
X11380000Y-8686000D01*
X11380000Y-8840000D02*
X11480000Y-8940000D01*
X11480000Y-8840000D02*
X11380000Y-8940000D01*
X11380000Y-9094000D02*
X11480000Y-9194000D01*
X11480000Y-9094000D02*
X11380000Y-9194000D01*
X11380000Y-9348000D02*
X11480000Y-9448000D01*
X11480000Y-9348000D02*
X11380000Y-9448000D01*
X11380000Y-9602000D02*
X11480000Y-9702000D01*
X11480000Y-9602000D02*
X11380000Y-9702000D01*
X11380000Y-9856000D02*
X11480000Y-9956000D01*
X11480000Y-9856000D02*
X11380000Y-9956000D01*
X11380000Y-10110000D02*
X11480000Y-10210000D01*
X11480000Y-10110000D02*
X11380000Y-10210000D01*
X11380000Y-10364000D02*
X11480000Y-10464000D01*
X11480000Y-10364000D02*
X11380000Y-10464000D01*
X11380000Y-10618000D02*
X11480000Y-10718000D01*
X11480000Y-10618000D02*
X11380000Y-10718000D01*
X11380000Y-10872000D02*
X11480000Y-10972000D01*
X11480000Y-10872000D02*
X11380000Y-10972000D01*
X11380000Y-12396000D02*
X11480000Y-12496000D01*
X11480000Y-12396000D02*
X11380000Y-12496000D01*
X11380000Y-12650000D02*
X11480000Y-12750000D01*
X11480000Y-12650000D02*
X11380000Y-12750000D01*
X11380000Y-12904000D02*
X11480000Y-13004000D01*
X11480000Y-12904000D02*
X11380000Y-13004000D01*
X11380000Y-13158000D02*
X11480000Y-13258000D01*
X11480000Y-13158000D02*
X11380000Y-13258000D01*
X11380000Y-13412000D02*
X11480000Y-13512000D01*
X11480000Y-13412000D02*
X11380000Y-13512000D01*
X11380000Y-13666000D02*
X11480000Y-13766000D01*
X11480000Y-13666000D02*
X11380000Y-13766000D01*
X12380000Y-12396000D02*
X12480000Y-12496000D01*
X12480000Y-12396000D02*
X12380000Y-12496000D01*
X12380000Y-12650000D02*
X12480000Y-12750000D01*
X12480000Y-12650000D02*
X12380000Y-12750000D01*
X12380000Y-12904000D02*
X12480000Y-13004000D01*
X12480000Y-12904000D02*
X12380000Y-13004000D01*
X12380000Y-13158000D02*
X12480000Y-13258000D01*
X12480000Y-13158000D02*
X12380000Y-13258000D01*
X12380000Y-13412000D02*
X12480000Y-13512000D01*
X12480000Y-13412000D02*
X12380000Y-13512000D01*
X12380000Y-13666000D02*
X12480000Y-13766000D01*
X12480000Y-13666000D02*
X12380000Y-13766000D01*
X13412000Y-12396000D02*
X13512000Y-12496000D01*
X13512000Y-12396000D02*
X13412000Y-12496000D01*
X13412000Y-12650000D02*
X13512000Y-12750000D01*
X13512000Y-12650000D02*
X13412000Y-12750000D01*
X13412000Y-12904000D02*
X13512000Y-13004000D01*
X13512000Y-12904000D02*
X13412000Y-13004000D01*
X13412000Y-13158000D02*
X13512000Y-13258000D01*
X13512000Y-13158000D02*
X13412000Y-13258000D01*
X13412000Y-13412000D02*
X13512000Y-13512000D01*
X13512000Y-13412000D02*
X13412000Y-13512000D01*
X13412000Y-13666000D02*
X13512000Y-13766000D01*
X13512000Y-13666000D02*
X13412000Y-13766000D01*
X13920000Y-7316000D02*
X14020000Y-7416000D01*
X14020000Y-7316000D02*
X13920000Y-7416000D01*
X13920000Y-7570000D02*
X14020000Y-7670000D01*
X14020000Y-7570000D02*
X13920000Y-7670000D01*
X13920000Y-7824000D02*
X14020000Y-7924000D01*
X14020000Y-7824000D02*
X13920000Y-7924000D01*
X13920000Y-8078000D02*
X14020000Y-8178000D01*
X14020000Y-8078000D02*
X13920000Y-8178000D01*
X13920000Y-8332000D02*
X14020000Y-8432000D01*
X14020000Y-8332000D02*
X13920000Y-8432000D01*
X13920000Y-8586000D02*
X14020000Y-8686000D01*
X14020000Y-8586000D02*
X13920000Y-8686000D01*
X13920000Y-8840000D02*
X14020000Y-8940000D01*
X14020000Y-8840000D02*
X13920000Y-8940000D01*
X13920000Y-9094000D02*
X14020000Y-9194000D01*
X14020000Y-9094000D02*
X13920000Y-9194000D01*
X13920000Y-9348000D02*
X14020000Y-9448000D01*
X14020000Y-9348000D02*
X13920000Y-9448000D01*
X13920000Y-9602000D02*
X14020000Y-9702000D01*
X14020000Y-9602000D02*
X13920000Y-9702000D01*
X13920000Y-9856000D02*
X14020000Y-9956000D01*
X14020000Y-9856000D02*
X13920000Y-9956000D01*
X13920000Y-10110000D02*
X14020000Y-10210000D01*
X14020000Y-10110000D02*
X13920000Y-10210000D01*
X13920000Y-10364000D02*
X14020000Y-10464000D01*
X14020000Y-10364000D02*
X13920000Y-10464000D01*
X13920000Y-10618000D02*
X14020000Y-10718000D01*
X14020000Y-10618000D02*
X13920000Y-10718000D01*
X13920000Y-10872000D02*
X14020000Y-10972000D01*
X14020000Y-10872000D02*
X13920000Y-10972000D01*
X14936000Y-7316000D02*
X15036000Y-7416000D01*
X15036000Y-7316000D02*
X14936000Y-7416000D01*
X14936000Y-7570000D02*
X15036000Y-7670000D01*
X15036000Y-7570000D02*
X14936000Y-7670000D01*
X14936000Y-7824000D02*
X15036000Y-7924000D01*
X15036000Y-7824000D02*
X14936000Y-7924000D01*
X14936000Y-8078000D02*
X15036000Y-8178000D01*
X15036000Y-8078000D02*
X14936000Y-8178000D01*
X14936000Y-8332000D02*
X15036000Y-8432000D01*
X15036000Y-8332000D02*
X14936000Y-8432000D01*
X14936000Y-8586000D02*
X15036000Y-8686000D01*
X15036000Y-8586000D02*
X14936000Y-8686000D01*
X14936000Y-8840000D02*
X15036000Y-8940000D01*
X15036000Y-8840000D02*
X14936000Y-8940000D01*
X14936000Y-9094000D02*
X15036000Y-9194000D01*
X15036000Y-9094000D02*
X14936000Y-9194000D01*
X14936000Y-9348000D02*
X15036000Y-9448000D01*
X15036000Y-9348000D02*
X14936000Y-9448000D01*
X14936000Y-9602000D02*
X15036000Y-9702000D01*
X15036000Y-9602000D02*
X14936000Y-9702000D01*
X14936000Y-9856000D02*
X15036000Y-9956000D01*
X15036000Y-9856000D02*
X14936000Y-9956000D01*
X14936000Y-10110000D02*
X15036000Y-10210000D01*
X15036000Y-10110000D02*
X14936000Y-10210000D01*
X14936000Y-10364000D02*
X15036000Y-10464000D01*
X15036000Y-10364000D02*
X14936000Y-10464000D01*
X14936000Y-10618000D02*
X15036000Y-10718000D01*
X15036000Y-10618000D02*
X14936000Y-10718000D01*
X14936000Y-10872000D02*
X15036000Y-10972000D01*
X15036000Y-10872000D02*
X14936000Y-10972000D01*
X14936000Y-12396000D02*
X15036000Y-12496000D01*
X15036000Y-12396000D02*
X14936000Y-12496000D01*
X14936000Y-12650000D02*
X15036000Y-12750000D01*
X15036000Y-12650000D02*
X14936000Y-12750000D01*
X14936000Y-12904000D02*
X15036000Y-13004000D01*
X15036000Y-12904000D02*
X14936000Y-13004000D01*
X14936000Y-13158000D02*
X15036000Y-13258000D01*
X15036000Y-13158000D02*
X14936000Y-13258000D01*
X14936000Y-13412000D02*
X15036000Y-13512000D01*
X15036000Y-13412000D02*
X14936000Y-13512000D01*
X14936000Y-13666000D02*
X15036000Y-13766000D01*
X15036000Y-13666000D02*
X14936000Y-13766000D01*
X16160000Y-12012000D02*
X16260000Y-12112000D01*
X16260000Y-12012000D02*
X16160000Y-12112000D01*
X16160000Y-12266000D02*
X16260000Y-12366000D01*
X16260000Y-12266000D02*
X16160000Y-12366000D01*
X16460000Y-12812000D02*
X16560000Y-12912000D01*
X16560000Y-12812000D02*
X16460000Y-12912000D01*
X16460000Y-13066000D02*
X16560000Y-13166000D01*
X16560000Y-13066000D02*
X16460000Y-13166000D01*
X16460000Y-13412000D02*
X16560000Y-13512000D01*
X16560000Y-13412000D02*
X16460000Y-13512000D01*
X16460000Y-13666000D02*
X16560000Y-13766000D01*
X16560000Y-13666000D02*
X16460000Y-13766000D01*
X16714000Y-9348000D02*
X16814000Y-9448000D01*
X16814000Y-9348000D02*
X16714000Y-9448000D01*
X16714000Y-9602000D02*
X16814000Y-9702000D01*
X16814000Y-9602000D02*
X16714000Y-9702000D01*
X16714000Y-9856000D02*
X16814000Y-9956000D01*
X16814000Y-9856000D02*
X16714000Y-9956000D01*
X16714000Y-10110000D02*
X16814000Y-10210000D01*
X16814000Y-10110000D02*
X16714000Y-10210000D01*
X16968000Y-9348000D02*
X17068000Y-9448000D01*
X17068000Y-9348000D02*
X16968000Y-9448000D01*
X16968000Y-9602000D02*
X17068000Y-9702000D01*
X17068000Y-9602000D02*
X16968000Y-9702000D01*
X16968000Y-9856000D02*
X17068000Y-9956000D01*
X17068000Y-9856000D02*
X16968000Y-9956000D01*
X16968000Y-10110000D02*
X17068000Y-10210000D01*
X17068000Y-10110000D02*
X16968000Y-10210000D01*
X17840000Y-12812000D02*
X17940000Y-12912000D01*
X17940000Y-12812000D02*
X17840000Y-12912000D01*
X17840000Y-13066000D02*
X17940000Y-13166000D01*
X17940000Y-13066000D02*
X17840000Y-13166000D01*
X17840000Y-13412000D02*
X17940000Y-13512000D01*
X17940000Y-13412000D02*
X17840000Y-13512000D01*
X17840000Y-13666000D02*
X17940000Y-13766000D01*
X17940000Y-13666000D02*
X17840000Y-13766000D01*
X19000000Y-12904000D02*
X19100000Y-13004000D01*
X19100000Y-12904000D02*
X19000000Y-13004000D01*
X19000000Y-13158000D02*
X19100000Y-13258000D01*
X19100000Y-13158000D02*
X19000000Y-13258000D01*
X19000000Y-13412000D02*
X19100000Y-13512000D01*
X19100000Y-13412000D02*
X19000000Y-13512000D01*
X19000000Y-13666000D02*
X19100000Y-13766000D01*
X19100000Y-13666000D02*
X19000000Y-13766000D01*
D13*
X16819000Y-7620000D02*
G75*
G02*
X16709000Y-7620000I-55000J0D01*
G01*
X16709000Y-7620000D02*
G75*
G02*
X16819000Y-7620000I55000J0D01*
G01*
X17073000Y-7620000D02*
G75*
G02*
X16963000Y-7620000I-55000J0D01*
G01*
X16963000Y-7620000D02*
G75*
G02*
X17073000Y-7620000I55000J0D01*
G01*
X17327000Y-7620000D02*
G75*
G02*
X17217000Y-7620000I-55000J0D01*
G01*
X17217000Y-7620000D02*
G75*
G02*
X17327000Y-7620000I55000J0D01*
G01*
X18343000Y-7620000D02*
G75*
G02*
X18233000Y-7620000I-55000J0D01*
G01*
X18233000Y-7620000D02*
G75*
G02*
X18343000Y-7620000I55000J0D01*
G01*
X18343000Y-8636000D02*
G75*
G02*
X18233000Y-8636000I-55000J0D01*
G01*
X18233000Y-8636000D02*
G75*
G02*
X18343000Y-8636000I55000J0D01*
G01*
D14*
X18288000Y-10084000D02*
X18288000Y-10236000D01*
X18212000Y-10160000D02*
X18364000Y-10160000D01*
X18288000Y-10592000D02*
X18288000Y-10744000D01*
X18212000Y-10668000D02*
X18364000Y-10668000D01*
D11*
X9148277Y-15299984D02*
X9148277Y-15099984D01*
X9148277Y-15099984D02*
X9195896Y-15099984D01*
X9195896Y-15099984D02*
X9224467Y-15109508D01*
X9224467Y-15109508D02*
X9243515Y-15128555D01*
X9243515Y-15128555D02*
X9253039Y-15147603D01*
X9253039Y-15147603D02*
X9262563Y-15185698D01*
X9262563Y-15185698D02*
X9262563Y-15214269D01*
X9262563Y-15214269D02*
X9253039Y-15252365D01*
X9253039Y-15252365D02*
X9243515Y-15271412D01*
X9243515Y-15271412D02*
X9224467Y-15290460D01*
X9224467Y-15290460D02*
X9195896Y-15299984D01*
X9195896Y-15299984D02*
X9148277Y-15299984D01*
X9348277Y-15299984D02*
X9348277Y-15166650D01*
X9348277Y-15204746D02*
X9357801Y-15185698D01*
X9357801Y-15185698D02*
X9367324Y-15176174D01*
X9367324Y-15176174D02*
X9386372Y-15166650D01*
X9386372Y-15166650D02*
X9405420Y-15166650D01*
X9472086Y-15299984D02*
X9472086Y-15166650D01*
X9472086Y-15099984D02*
X9462563Y-15109508D01*
X9462563Y-15109508D02*
X9472086Y-15119031D01*
X9472086Y-15119031D02*
X9481610Y-15109508D01*
X9481610Y-15109508D02*
X9472086Y-15099984D01*
X9472086Y-15099984D02*
X9472086Y-15119031D01*
X9595896Y-15299984D02*
X9576848Y-15290460D01*
X9576848Y-15290460D02*
X9567324Y-15271412D01*
X9567324Y-15271412D02*
X9567324Y-15099984D01*
X9700658Y-15299984D02*
X9681610Y-15290460D01*
X9681610Y-15290460D02*
X9672086Y-15271412D01*
X9672086Y-15271412D02*
X9672086Y-15099984D01*
X9929229Y-15299984D02*
X9929229Y-15099984D01*
X9929229Y-15099984D02*
X9995896Y-15242841D01*
X9995896Y-15242841D02*
X10062563Y-15099984D01*
X10062563Y-15099984D02*
X10062563Y-15299984D01*
X10243515Y-15299984D02*
X10243515Y-15195222D01*
X10243515Y-15195222D02*
X10233991Y-15176174D01*
X10233991Y-15176174D02*
X10214944Y-15166650D01*
X10214944Y-15166650D02*
X10176848Y-15166650D01*
X10176848Y-15166650D02*
X10157801Y-15176174D01*
X10243515Y-15290460D02*
X10224467Y-15299984D01*
X10224467Y-15299984D02*
X10176848Y-15299984D01*
X10176848Y-15299984D02*
X10157801Y-15290460D01*
X10157801Y-15290460D02*
X10148277Y-15271412D01*
X10148277Y-15271412D02*
X10148277Y-15252365D01*
X10148277Y-15252365D02*
X10157801Y-15233317D01*
X10157801Y-15233317D02*
X10176848Y-15223793D01*
X10176848Y-15223793D02*
X10224467Y-15223793D01*
X10224467Y-15223793D02*
X10243515Y-15214269D01*
X10338753Y-15166650D02*
X10338753Y-15366650D01*
X10338753Y-15176174D02*
X10357801Y-15166650D01*
X10357801Y-15166650D02*
X10395896Y-15166650D01*
X10395896Y-15166650D02*
X10414944Y-15176174D01*
X10414944Y-15176174D02*
X10424467Y-15185698D01*
X10424467Y-15185698D02*
X10433991Y-15204746D01*
X10433991Y-15204746D02*
X10433991Y-15261888D01*
X10433991Y-15261888D02*
X10424467Y-15280936D01*
X10424467Y-15280936D02*
X10414944Y-15290460D01*
X10414944Y-15290460D02*
X10395896Y-15299984D01*
X10395896Y-15299984D02*
X10357801Y-15299984D01*
X10357801Y-15299984D02*
X10338753Y-15290460D01*
X10519705Y-15280936D02*
X10529229Y-15290460D01*
X10529229Y-15290460D02*
X10519705Y-15299984D01*
X10519705Y-15299984D02*
X10510182Y-15290460D01*
X10510182Y-15290460D02*
X10519705Y-15280936D01*
X10519705Y-15280936D02*
X10519705Y-15299984D01*
X10519705Y-15176174D02*
X10529229Y-15185698D01*
X10529229Y-15185698D02*
X10519705Y-15195222D01*
X10519705Y-15195222D02*
X10510182Y-15185698D01*
X10510182Y-15185698D02*
X10519705Y-15176174D01*
X10519705Y-15176174D02*
X10519705Y-15195222D01*
D12*
X8787500Y-15578500D02*
X8887500Y-15678500D01*
X8887500Y-15578500D02*
X8787500Y-15678500D01*
D11*
X9253039Y-15719984D02*
X9138753Y-15719984D01*
X9195896Y-15719984D02*
X9195896Y-15519984D01*
X9195896Y-15519984D02*
X9176848Y-15548555D01*
X9176848Y-15548555D02*
X9157801Y-15567603D01*
X9157801Y-15567603D02*
X9138753Y-15577127D01*
X9338753Y-15700936D02*
X9348277Y-15710460D01*
X9348277Y-15710460D02*
X9338753Y-15719984D01*
X9338753Y-15719984D02*
X9329229Y-15710460D01*
X9329229Y-15710460D02*
X9338753Y-15700936D01*
X9338753Y-15700936D02*
X9338753Y-15719984D01*
X9472086Y-15519984D02*
X9491134Y-15519984D01*
X9491134Y-15519984D02*
X9510182Y-15529508D01*
X9510182Y-15529508D02*
X9519705Y-15539031D01*
X9519705Y-15539031D02*
X9529229Y-15558079D01*
X9529229Y-15558079D02*
X9538753Y-15596174D01*
X9538753Y-15596174D02*
X9538753Y-15643793D01*
X9538753Y-15643793D02*
X9529229Y-15681888D01*
X9529229Y-15681888D02*
X9519705Y-15700936D01*
X9519705Y-15700936D02*
X9510182Y-15710460D01*
X9510182Y-15710460D02*
X9491134Y-15719984D01*
X9491134Y-15719984D02*
X9472086Y-15719984D01*
X9472086Y-15719984D02*
X9453039Y-15710460D01*
X9453039Y-15710460D02*
X9443515Y-15700936D01*
X9443515Y-15700936D02*
X9433991Y-15681888D01*
X9433991Y-15681888D02*
X9424467Y-15643793D01*
X9424467Y-15643793D02*
X9424467Y-15596174D01*
X9424467Y-15596174D02*
X9433991Y-15558079D01*
X9433991Y-15558079D02*
X9443515Y-15539031D01*
X9443515Y-15539031D02*
X9453039Y-15529508D01*
X9453039Y-15529508D02*
X9472086Y-15519984D01*
X9662563Y-15519984D02*
X9681610Y-15519984D01*
X9681610Y-15519984D02*
X9700658Y-15529508D01*
X9700658Y-15529508D02*
X9710182Y-15539031D01*
X9710182Y-15539031D02*
X9719705Y-15558079D01*
X9719705Y-15558079D02*
X9729229Y-15596174D01*
X9729229Y-15596174D02*
X9729229Y-15643793D01*
X9729229Y-15643793D02*
X9719705Y-15681888D01*
X9719705Y-15681888D02*
X9710182Y-15700936D01*
X9710182Y-15700936D02*
X9700658Y-15710460D01*
X9700658Y-15710460D02*
X9681610Y-15719984D01*
X9681610Y-15719984D02*
X9662563Y-15719984D01*
X9662563Y-15719984D02*
X9643515Y-15710460D01*
X9643515Y-15710460D02*
X9633991Y-15700936D01*
X9633991Y-15700936D02*
X9624467Y-15681888D01*
X9624467Y-15681888D02*
X9614944Y-15643793D01*
X9614944Y-15643793D02*
X9614944Y-15596174D01*
X9614944Y-15596174D02*
X9624467Y-15558079D01*
X9624467Y-15558079D02*
X9633991Y-15539031D01*
X9633991Y-15539031D02*
X9643515Y-15529508D01*
X9643515Y-15529508D02*
X9662563Y-15519984D01*
X9853039Y-15519984D02*
X9872086Y-15519984D01*
X9872086Y-15519984D02*
X9891134Y-15529508D01*
X9891134Y-15529508D02*
X9900658Y-15539031D01*
X9900658Y-15539031D02*
X9910182Y-15558079D01*
X9910182Y-15558079D02*
X9919705Y-15596174D01*
X9919705Y-15596174D02*
X9919705Y-15643793D01*
X9919705Y-15643793D02*
X9910182Y-15681888D01*
X9910182Y-15681888D02*
X9900658Y-15700936D01*
X9900658Y-15700936D02*
X9891134Y-15710460D01*
X9891134Y-15710460D02*
X9872086Y-15719984D01*
X9872086Y-15719984D02*
X9853039Y-15719984D01*
X9853039Y-15719984D02*
X9833991Y-15710460D01*
X9833991Y-15710460D02*
X9824467Y-15700936D01*
X9824467Y-15700936D02*
X9814944Y-15681888D01*
X9814944Y-15681888D02*
X9805420Y-15643793D01*
X9805420Y-15643793D02*
X9805420Y-15596174D01*
X9805420Y-15596174D02*
X9814944Y-15558079D01*
X9814944Y-15558079D02*
X9824467Y-15539031D01*
X9824467Y-15539031D02*
X9833991Y-15529508D01*
X9833991Y-15529508D02*
X9853039Y-15519984D01*
X10005420Y-15719984D02*
X10005420Y-15586650D01*
X10005420Y-15605698D02*
X10014944Y-15596174D01*
X10014944Y-15596174D02*
X10033991Y-15586650D01*
X10033991Y-15586650D02*
X10062563Y-15586650D01*
X10062563Y-15586650D02*
X10081610Y-15596174D01*
X10081610Y-15596174D02*
X10091134Y-15615222D01*
X10091134Y-15615222D02*
X10091134Y-15719984D01*
X10091134Y-15615222D02*
X10100658Y-15596174D01*
X10100658Y-15596174D02*
X10119705Y-15586650D01*
X10119705Y-15586650D02*
X10148277Y-15586650D01*
X10148277Y-15586650D02*
X10167325Y-15596174D01*
X10167325Y-15596174D02*
X10176848Y-15615222D01*
X10176848Y-15615222D02*
X10176848Y-15719984D01*
X10272086Y-15719984D02*
X10272086Y-15586650D01*
X10272086Y-15605698D02*
X10281610Y-15596174D01*
X10281610Y-15596174D02*
X10300658Y-15586650D01*
X10300658Y-15586650D02*
X10329229Y-15586650D01*
X10329229Y-15586650D02*
X10348277Y-15596174D01*
X10348277Y-15596174D02*
X10357801Y-15615222D01*
X10357801Y-15615222D02*
X10357801Y-15719984D01*
X10357801Y-15615222D02*
X10367325Y-15596174D01*
X10367325Y-15596174D02*
X10386372Y-15586650D01*
X10386372Y-15586650D02*
X10414944Y-15586650D01*
X10414944Y-15586650D02*
X10433991Y-15596174D01*
X10433991Y-15596174D02*
X10443515Y-15615222D01*
X10443515Y-15615222D02*
X10443515Y-15719984D01*
X10833991Y-15510460D02*
X10662563Y-15767603D01*
X11091134Y-15519984D02*
X11110182Y-15519984D01*
X11110182Y-15519984D02*
X11129229Y-15529508D01*
X11129229Y-15529508D02*
X11138753Y-15539031D01*
X11138753Y-15539031D02*
X11148277Y-15558079D01*
X11148277Y-15558079D02*
X11157801Y-15596174D01*
X11157801Y-15596174D02*
X11157801Y-15643793D01*
X11157801Y-15643793D02*
X11148277Y-15681888D01*
X11148277Y-15681888D02*
X11138753Y-15700936D01*
X11138753Y-15700936D02*
X11129229Y-15710460D01*
X11129229Y-15710460D02*
X11110182Y-15719984D01*
X11110182Y-15719984D02*
X11091134Y-15719984D01*
X11091134Y-15719984D02*
X11072087Y-15710460D01*
X11072087Y-15710460D02*
X11062563Y-15700936D01*
X11062563Y-15700936D02*
X11053039Y-15681888D01*
X11053039Y-15681888D02*
X11043515Y-15643793D01*
X11043515Y-15643793D02*
X11043515Y-15596174D01*
X11043515Y-15596174D02*
X11053039Y-15558079D01*
X11053039Y-15558079D02*
X11062563Y-15539031D01*
X11062563Y-15539031D02*
X11072087Y-15529508D01*
X11072087Y-15529508D02*
X11091134Y-15519984D01*
X11243515Y-15700936D02*
X11253039Y-15710460D01*
X11253039Y-15710460D02*
X11243515Y-15719984D01*
X11243515Y-15719984D02*
X11233991Y-15710460D01*
X11233991Y-15710460D02*
X11243515Y-15700936D01*
X11243515Y-15700936D02*
X11243515Y-15719984D01*
X11376848Y-15519984D02*
X11395896Y-15519984D01*
X11395896Y-15519984D02*
X11414944Y-15529508D01*
X11414944Y-15529508D02*
X11424467Y-15539031D01*
X11424467Y-15539031D02*
X11433991Y-15558079D01*
X11433991Y-15558079D02*
X11443515Y-15596174D01*
X11443515Y-15596174D02*
X11443515Y-15643793D01*
X11443515Y-15643793D02*
X11433991Y-15681888D01*
X11433991Y-15681888D02*
X11424467Y-15700936D01*
X11424467Y-15700936D02*
X11414944Y-15710460D01*
X11414944Y-15710460D02*
X11395896Y-15719984D01*
X11395896Y-15719984D02*
X11376848Y-15719984D01*
X11376848Y-15719984D02*
X11357801Y-15710460D01*
X11357801Y-15710460D02*
X11348277Y-15700936D01*
X11348277Y-15700936D02*
X11338753Y-15681888D01*
X11338753Y-15681888D02*
X11329229Y-15643793D01*
X11329229Y-15643793D02*
X11329229Y-15596174D01*
X11329229Y-15596174D02*
X11338753Y-15558079D01*
X11338753Y-15558079D02*
X11348277Y-15539031D01*
X11348277Y-15539031D02*
X11357801Y-15529508D01*
X11357801Y-15529508D02*
X11376848Y-15519984D01*
X11510182Y-15519984D02*
X11633991Y-15519984D01*
X11633991Y-15519984D02*
X11567325Y-15596174D01*
X11567325Y-15596174D02*
X11595896Y-15596174D01*
X11595896Y-15596174D02*
X11614944Y-15605698D01*
X11614944Y-15605698D02*
X11624467Y-15615222D01*
X11624467Y-15615222D02*
X11633991Y-15634269D01*
X11633991Y-15634269D02*
X11633991Y-15681888D01*
X11633991Y-15681888D02*
X11624467Y-15700936D01*
X11624467Y-15700936D02*
X11614944Y-15710460D01*
X11614944Y-15710460D02*
X11595896Y-15719984D01*
X11595896Y-15719984D02*
X11538753Y-15719984D01*
X11538753Y-15719984D02*
X11519706Y-15710460D01*
X11519706Y-15710460D02*
X11510182Y-15700936D01*
X11729229Y-15719984D02*
X11767325Y-15719984D01*
X11767325Y-15719984D02*
X11786372Y-15710460D01*
X11786372Y-15710460D02*
X11795896Y-15700936D01*
X11795896Y-15700936D02*
X11814944Y-15672365D01*
X11814944Y-15672365D02*
X11824467Y-15634269D01*
X11824467Y-15634269D02*
X11824467Y-15558079D01*
X11824467Y-15558079D02*
X11814944Y-15539031D01*
X11814944Y-15539031D02*
X11805420Y-15529508D01*
X11805420Y-15529508D02*
X11786372Y-15519984D01*
X11786372Y-15519984D02*
X11748277Y-15519984D01*
X11748277Y-15519984D02*
X11729229Y-15529508D01*
X11729229Y-15529508D02*
X11719706Y-15539031D01*
X11719706Y-15539031D02*
X11710182Y-15558079D01*
X11710182Y-15558079D02*
X11710182Y-15605698D01*
X11710182Y-15605698D02*
X11719706Y-15624746D01*
X11719706Y-15624746D02*
X11729229Y-15634269D01*
X11729229Y-15634269D02*
X11748277Y-15643793D01*
X11748277Y-15643793D02*
X11786372Y-15643793D01*
X11786372Y-15643793D02*
X11805420Y-15634269D01*
X11805420Y-15634269D02*
X11814944Y-15624746D01*
X11814944Y-15624746D02*
X11824467Y-15605698D01*
X11995896Y-15586650D02*
X11995896Y-15719984D01*
X11948277Y-15510460D02*
X11900658Y-15653317D01*
X11900658Y-15653317D02*
X12024467Y-15653317D01*
X12091134Y-15519984D02*
X12091134Y-15558079D01*
X12167325Y-15519984D02*
X12167325Y-15558079D01*
X12462563Y-15796174D02*
X12453039Y-15786650D01*
X12453039Y-15786650D02*
X12433991Y-15758079D01*
X12433991Y-15758079D02*
X12424468Y-15739031D01*
X12424468Y-15739031D02*
X12414944Y-15710460D01*
X12414944Y-15710460D02*
X12405420Y-15662841D01*
X12405420Y-15662841D02*
X12405420Y-15624746D01*
X12405420Y-15624746D02*
X12414944Y-15577127D01*
X12414944Y-15577127D02*
X12424468Y-15548555D01*
X12424468Y-15548555D02*
X12433991Y-15529508D01*
X12433991Y-15529508D02*
X12453039Y-15500936D01*
X12453039Y-15500936D02*
X12462563Y-15491412D01*
X12643515Y-15719984D02*
X12529229Y-15719984D01*
X12586372Y-15719984D02*
X12586372Y-15519984D01*
X12586372Y-15519984D02*
X12567325Y-15548555D01*
X12567325Y-15548555D02*
X12548277Y-15567603D01*
X12548277Y-15567603D02*
X12529229Y-15577127D01*
X12833991Y-15719984D02*
X12719706Y-15719984D01*
X12776848Y-15719984D02*
X12776848Y-15519984D01*
X12776848Y-15519984D02*
X12757801Y-15548555D01*
X12757801Y-15548555D02*
X12738753Y-15567603D01*
X12738753Y-15567603D02*
X12719706Y-15577127D01*
X12910182Y-15539031D02*
X12919706Y-15529508D01*
X12919706Y-15529508D02*
X12938753Y-15519984D01*
X12938753Y-15519984D02*
X12986372Y-15519984D01*
X12986372Y-15519984D02*
X13005420Y-15529508D01*
X13005420Y-15529508D02*
X13014944Y-15539031D01*
X13014944Y-15539031D02*
X13024468Y-15558079D01*
X13024468Y-15558079D02*
X13024468Y-15577127D01*
X13024468Y-15577127D02*
X13014944Y-15605698D01*
X13014944Y-15605698D02*
X12900658Y-15719984D01*
X12900658Y-15719984D02*
X13024468Y-15719984D01*
X13262563Y-15719984D02*
X13262563Y-15519984D01*
X13348277Y-15719984D02*
X13348277Y-15615222D01*
X13348277Y-15615222D02*
X13338753Y-15596174D01*
X13338753Y-15596174D02*
X13319706Y-15586650D01*
X13319706Y-15586650D02*
X13291134Y-15586650D01*
X13291134Y-15586650D02*
X13272087Y-15596174D01*
X13272087Y-15596174D02*
X13262563Y-15605698D01*
X13472087Y-15719984D02*
X13453039Y-15710460D01*
X13453039Y-15710460D02*
X13443515Y-15700936D01*
X13443515Y-15700936D02*
X13433991Y-15681888D01*
X13433991Y-15681888D02*
X13433991Y-15624746D01*
X13433991Y-15624746D02*
X13443515Y-15605698D01*
X13443515Y-15605698D02*
X13453039Y-15596174D01*
X13453039Y-15596174D02*
X13472087Y-15586650D01*
X13472087Y-15586650D02*
X13500658Y-15586650D01*
X13500658Y-15586650D02*
X13519706Y-15596174D01*
X13519706Y-15596174D02*
X13529230Y-15605698D01*
X13529230Y-15605698D02*
X13538753Y-15624746D01*
X13538753Y-15624746D02*
X13538753Y-15681888D01*
X13538753Y-15681888D02*
X13529230Y-15700936D01*
X13529230Y-15700936D02*
X13519706Y-15710460D01*
X13519706Y-15710460D02*
X13500658Y-15719984D01*
X13500658Y-15719984D02*
X13472087Y-15719984D01*
X13653039Y-15719984D02*
X13633991Y-15710460D01*
X13633991Y-15710460D02*
X13624468Y-15691412D01*
X13624468Y-15691412D02*
X13624468Y-15519984D01*
X13805420Y-15710460D02*
X13786372Y-15719984D01*
X13786372Y-15719984D02*
X13748277Y-15719984D01*
X13748277Y-15719984D02*
X13729230Y-15710460D01*
X13729230Y-15710460D02*
X13719706Y-15691412D01*
X13719706Y-15691412D02*
X13719706Y-15615222D01*
X13719706Y-15615222D02*
X13729230Y-15596174D01*
X13729230Y-15596174D02*
X13748277Y-15586650D01*
X13748277Y-15586650D02*
X13786372Y-15586650D01*
X13786372Y-15586650D02*
X13805420Y-15596174D01*
X13805420Y-15596174D02*
X13814944Y-15615222D01*
X13814944Y-15615222D02*
X13814944Y-15634269D01*
X13814944Y-15634269D02*
X13719706Y-15653317D01*
X13891134Y-15710460D02*
X13910182Y-15719984D01*
X13910182Y-15719984D02*
X13948277Y-15719984D01*
X13948277Y-15719984D02*
X13967325Y-15710460D01*
X13967325Y-15710460D02*
X13976849Y-15691412D01*
X13976849Y-15691412D02*
X13976849Y-15681888D01*
X13976849Y-15681888D02*
X13967325Y-15662841D01*
X13967325Y-15662841D02*
X13948277Y-15653317D01*
X13948277Y-15653317D02*
X13919706Y-15653317D01*
X13919706Y-15653317D02*
X13900658Y-15643793D01*
X13900658Y-15643793D02*
X13891134Y-15624746D01*
X13891134Y-15624746D02*
X13891134Y-15615222D01*
X13891134Y-15615222D02*
X13900658Y-15596174D01*
X13900658Y-15596174D02*
X13919706Y-15586650D01*
X13919706Y-15586650D02*
X13948277Y-15586650D01*
X13948277Y-15586650D02*
X13967325Y-15596174D01*
X14043515Y-15796174D02*
X14053039Y-15786650D01*
X14053039Y-15786650D02*
X14072087Y-15758079D01*
X14072087Y-15758079D02*
X14081611Y-15739031D01*
X14081611Y-15739031D02*
X14091134Y-15710460D01*
X14091134Y-15710460D02*
X14100658Y-15662841D01*
X14100658Y-15662841D02*
X14100658Y-15624746D01*
X14100658Y-15624746D02*
X14091134Y-15577127D01*
X14091134Y-15577127D02*
X14081611Y-15548555D01*
X14081611Y-15548555D02*
X14072087Y-15529508D01*
X14072087Y-15529508D02*
X14053039Y-15500936D01*
X14053039Y-15500936D02*
X14043515Y-15491412D01*
D13*
X8887500Y-15892500D02*
G75*
G02*
X8777500Y-15892500I-55000J0D01*
G01*
X8777500Y-15892500D02*
G75*
G02*
X8887500Y-15892500I55000J0D01*
G01*
D11*
X9253039Y-15983984D02*
X9138753Y-15983984D01*
X9195896Y-15983984D02*
X9195896Y-15783984D01*
X9195896Y-15783984D02*
X9176848Y-15812555D01*
X9176848Y-15812555D02*
X9157801Y-15831603D01*
X9157801Y-15831603D02*
X9138753Y-15841127D01*
X9338753Y-15964936D02*
X9348277Y-15974460D01*
X9348277Y-15974460D02*
X9338753Y-15983984D01*
X9338753Y-15983984D02*
X9329229Y-15974460D01*
X9329229Y-15974460D02*
X9338753Y-15964936D01*
X9338753Y-15964936D02*
X9338753Y-15983984D01*
X9538753Y-15983984D02*
X9424467Y-15983984D01*
X9481610Y-15983984D02*
X9481610Y-15783984D01*
X9481610Y-15783984D02*
X9462563Y-15812555D01*
X9462563Y-15812555D02*
X9443515Y-15831603D01*
X9443515Y-15831603D02*
X9424467Y-15841127D01*
X9662563Y-15783984D02*
X9681610Y-15783984D01*
X9681610Y-15783984D02*
X9700658Y-15793508D01*
X9700658Y-15793508D02*
X9710182Y-15803031D01*
X9710182Y-15803031D02*
X9719705Y-15822079D01*
X9719705Y-15822079D02*
X9729229Y-15860174D01*
X9729229Y-15860174D02*
X9729229Y-15907793D01*
X9729229Y-15907793D02*
X9719705Y-15945888D01*
X9719705Y-15945888D02*
X9710182Y-15964936D01*
X9710182Y-15964936D02*
X9700658Y-15974460D01*
X9700658Y-15974460D02*
X9681610Y-15983984D01*
X9681610Y-15983984D02*
X9662563Y-15983984D01*
X9662563Y-15983984D02*
X9643515Y-15974460D01*
X9643515Y-15974460D02*
X9633991Y-15964936D01*
X9633991Y-15964936D02*
X9624467Y-15945888D01*
X9624467Y-15945888D02*
X9614944Y-15907793D01*
X9614944Y-15907793D02*
X9614944Y-15860174D01*
X9614944Y-15860174D02*
X9624467Y-15822079D01*
X9624467Y-15822079D02*
X9633991Y-15803031D01*
X9633991Y-15803031D02*
X9643515Y-15793508D01*
X9643515Y-15793508D02*
X9662563Y-15783984D01*
X9853039Y-15783984D02*
X9872086Y-15783984D01*
X9872086Y-15783984D02*
X9891134Y-15793508D01*
X9891134Y-15793508D02*
X9900658Y-15803031D01*
X9900658Y-15803031D02*
X9910182Y-15822079D01*
X9910182Y-15822079D02*
X9919705Y-15860174D01*
X9919705Y-15860174D02*
X9919705Y-15907793D01*
X9919705Y-15907793D02*
X9910182Y-15945888D01*
X9910182Y-15945888D02*
X9900658Y-15964936D01*
X9900658Y-15964936D02*
X9891134Y-15974460D01*
X9891134Y-15974460D02*
X9872086Y-15983984D01*
X9872086Y-15983984D02*
X9853039Y-15983984D01*
X9853039Y-15983984D02*
X9833991Y-15974460D01*
X9833991Y-15974460D02*
X9824467Y-15964936D01*
X9824467Y-15964936D02*
X9814944Y-15945888D01*
X9814944Y-15945888D02*
X9805420Y-15907793D01*
X9805420Y-15907793D02*
X9805420Y-15860174D01*
X9805420Y-15860174D02*
X9814944Y-15822079D01*
X9814944Y-15822079D02*
X9824467Y-15803031D01*
X9824467Y-15803031D02*
X9833991Y-15793508D01*
X9833991Y-15793508D02*
X9853039Y-15783984D01*
X10005420Y-15983984D02*
X10005420Y-15850650D01*
X10005420Y-15869698D02*
X10014944Y-15860174D01*
X10014944Y-15860174D02*
X10033991Y-15850650D01*
X10033991Y-15850650D02*
X10062563Y-15850650D01*
X10062563Y-15850650D02*
X10081610Y-15860174D01*
X10081610Y-15860174D02*
X10091134Y-15879222D01*
X10091134Y-15879222D02*
X10091134Y-15983984D01*
X10091134Y-15879222D02*
X10100658Y-15860174D01*
X10100658Y-15860174D02*
X10119705Y-15850650D01*
X10119705Y-15850650D02*
X10148277Y-15850650D01*
X10148277Y-15850650D02*
X10167325Y-15860174D01*
X10167325Y-15860174D02*
X10176848Y-15879222D01*
X10176848Y-15879222D02*
X10176848Y-15983984D01*
X10272086Y-15983984D02*
X10272086Y-15850650D01*
X10272086Y-15869698D02*
X10281610Y-15860174D01*
X10281610Y-15860174D02*
X10300658Y-15850650D01*
X10300658Y-15850650D02*
X10329229Y-15850650D01*
X10329229Y-15850650D02*
X10348277Y-15860174D01*
X10348277Y-15860174D02*
X10357801Y-15879222D01*
X10357801Y-15879222D02*
X10357801Y-15983984D01*
X10357801Y-15879222D02*
X10367325Y-15860174D01*
X10367325Y-15860174D02*
X10386372Y-15850650D01*
X10386372Y-15850650D02*
X10414944Y-15850650D01*
X10414944Y-15850650D02*
X10433991Y-15860174D01*
X10433991Y-15860174D02*
X10443515Y-15879222D01*
X10443515Y-15879222D02*
X10443515Y-15983984D01*
X10833991Y-15774460D02*
X10662563Y-16031603D01*
X11091134Y-15783984D02*
X11110182Y-15783984D01*
X11110182Y-15783984D02*
X11129229Y-15793508D01*
X11129229Y-15793508D02*
X11138753Y-15803031D01*
X11138753Y-15803031D02*
X11148277Y-15822079D01*
X11148277Y-15822079D02*
X11157801Y-15860174D01*
X11157801Y-15860174D02*
X11157801Y-15907793D01*
X11157801Y-15907793D02*
X11148277Y-15945888D01*
X11148277Y-15945888D02*
X11138753Y-15964936D01*
X11138753Y-15964936D02*
X11129229Y-15974460D01*
X11129229Y-15974460D02*
X11110182Y-15983984D01*
X11110182Y-15983984D02*
X11091134Y-15983984D01*
X11091134Y-15983984D02*
X11072087Y-15974460D01*
X11072087Y-15974460D02*
X11062563Y-15964936D01*
X11062563Y-15964936D02*
X11053039Y-15945888D01*
X11053039Y-15945888D02*
X11043515Y-15907793D01*
X11043515Y-15907793D02*
X11043515Y-15860174D01*
X11043515Y-15860174D02*
X11053039Y-15822079D01*
X11053039Y-15822079D02*
X11062563Y-15803031D01*
X11062563Y-15803031D02*
X11072087Y-15793508D01*
X11072087Y-15793508D02*
X11091134Y-15783984D01*
X11243515Y-15964936D02*
X11253039Y-15974460D01*
X11253039Y-15974460D02*
X11243515Y-15983984D01*
X11243515Y-15983984D02*
X11233991Y-15974460D01*
X11233991Y-15974460D02*
X11243515Y-15964936D01*
X11243515Y-15964936D02*
X11243515Y-15983984D01*
X11376848Y-15783984D02*
X11395896Y-15783984D01*
X11395896Y-15783984D02*
X11414944Y-15793508D01*
X11414944Y-15793508D02*
X11424467Y-15803031D01*
X11424467Y-15803031D02*
X11433991Y-15822079D01*
X11433991Y-15822079D02*
X11443515Y-15860174D01*
X11443515Y-15860174D02*
X11443515Y-15907793D01*
X11443515Y-15907793D02*
X11433991Y-15945888D01*
X11433991Y-15945888D02*
X11424467Y-15964936D01*
X11424467Y-15964936D02*
X11414944Y-15974460D01*
X11414944Y-15974460D02*
X11395896Y-15983984D01*
X11395896Y-15983984D02*
X11376848Y-15983984D01*
X11376848Y-15983984D02*
X11357801Y-15974460D01*
X11357801Y-15974460D02*
X11348277Y-15964936D01*
X11348277Y-15964936D02*
X11338753Y-15945888D01*
X11338753Y-15945888D02*
X11329229Y-15907793D01*
X11329229Y-15907793D02*
X11329229Y-15860174D01*
X11329229Y-15860174D02*
X11338753Y-15822079D01*
X11338753Y-15822079D02*
X11348277Y-15803031D01*
X11348277Y-15803031D02*
X11357801Y-15793508D01*
X11357801Y-15793508D02*
X11376848Y-15783984D01*
X11614944Y-15850650D02*
X11614944Y-15983984D01*
X11567325Y-15774460D02*
X11519706Y-15917317D01*
X11519706Y-15917317D02*
X11643515Y-15917317D01*
X11700658Y-15783984D02*
X11824467Y-15783984D01*
X11824467Y-15783984D02*
X11757801Y-15860174D01*
X11757801Y-15860174D02*
X11786372Y-15860174D01*
X11786372Y-15860174D02*
X11805420Y-15869698D01*
X11805420Y-15869698D02*
X11814944Y-15879222D01*
X11814944Y-15879222D02*
X11824467Y-15898269D01*
X11824467Y-15898269D02*
X11824467Y-15945888D01*
X11824467Y-15945888D02*
X11814944Y-15964936D01*
X11814944Y-15964936D02*
X11805420Y-15974460D01*
X11805420Y-15974460D02*
X11786372Y-15983984D01*
X11786372Y-15983984D02*
X11729229Y-15983984D01*
X11729229Y-15983984D02*
X11710182Y-15974460D01*
X11710182Y-15974460D02*
X11700658Y-15964936D01*
X11891134Y-15783984D02*
X12014944Y-15783984D01*
X12014944Y-15783984D02*
X11948277Y-15860174D01*
X11948277Y-15860174D02*
X11976848Y-15860174D01*
X11976848Y-15860174D02*
X11995896Y-15869698D01*
X11995896Y-15869698D02*
X12005420Y-15879222D01*
X12005420Y-15879222D02*
X12014944Y-15898269D01*
X12014944Y-15898269D02*
X12014944Y-15945888D01*
X12014944Y-15945888D02*
X12005420Y-15964936D01*
X12005420Y-15964936D02*
X11995896Y-15974460D01*
X11995896Y-15974460D02*
X11976848Y-15983984D01*
X11976848Y-15983984D02*
X11919706Y-15983984D01*
X11919706Y-15983984D02*
X11900658Y-15974460D01*
X11900658Y-15974460D02*
X11891134Y-15964936D01*
X12091134Y-15783984D02*
X12091134Y-15822079D01*
X12167325Y-15783984D02*
X12167325Y-15822079D01*
X12462563Y-16060174D02*
X12453039Y-16050650D01*
X12453039Y-16050650D02*
X12433991Y-16022079D01*
X12433991Y-16022079D02*
X12424468Y-16003031D01*
X12424468Y-16003031D02*
X12414944Y-15974460D01*
X12414944Y-15974460D02*
X12405420Y-15926841D01*
X12405420Y-15926841D02*
X12405420Y-15888746D01*
X12405420Y-15888746D02*
X12414944Y-15841127D01*
X12414944Y-15841127D02*
X12424468Y-15812555D01*
X12424468Y-15812555D02*
X12433991Y-15793508D01*
X12433991Y-15793508D02*
X12453039Y-15764936D01*
X12453039Y-15764936D02*
X12462563Y-15755412D01*
X12633991Y-15783984D02*
X12538753Y-15783984D01*
X12538753Y-15783984D02*
X12529229Y-15879222D01*
X12529229Y-15879222D02*
X12538753Y-15869698D01*
X12538753Y-15869698D02*
X12557801Y-15860174D01*
X12557801Y-15860174D02*
X12605420Y-15860174D01*
X12605420Y-15860174D02*
X12624468Y-15869698D01*
X12624468Y-15869698D02*
X12633991Y-15879222D01*
X12633991Y-15879222D02*
X12643515Y-15898269D01*
X12643515Y-15898269D02*
X12643515Y-15945888D01*
X12643515Y-15945888D02*
X12633991Y-15964936D01*
X12633991Y-15964936D02*
X12624468Y-15974460D01*
X12624468Y-15974460D02*
X12605420Y-15983984D01*
X12605420Y-15983984D02*
X12557801Y-15983984D01*
X12557801Y-15983984D02*
X12538753Y-15974460D01*
X12538753Y-15974460D02*
X12529229Y-15964936D01*
X12881610Y-15983984D02*
X12881610Y-15783984D01*
X12967325Y-15983984D02*
X12967325Y-15879222D01*
X12967325Y-15879222D02*
X12957801Y-15860174D01*
X12957801Y-15860174D02*
X12938753Y-15850650D01*
X12938753Y-15850650D02*
X12910182Y-15850650D01*
X12910182Y-15850650D02*
X12891134Y-15860174D01*
X12891134Y-15860174D02*
X12881610Y-15869698D01*
X13091134Y-15983984D02*
X13072087Y-15974460D01*
X13072087Y-15974460D02*
X13062563Y-15964936D01*
X13062563Y-15964936D02*
X13053039Y-15945888D01*
X13053039Y-15945888D02*
X13053039Y-15888746D01*
X13053039Y-15888746D02*
X13062563Y-15869698D01*
X13062563Y-15869698D02*
X13072087Y-15860174D01*
X13072087Y-15860174D02*
X13091134Y-15850650D01*
X13091134Y-15850650D02*
X13119706Y-15850650D01*
X13119706Y-15850650D02*
X13138753Y-15860174D01*
X13138753Y-15860174D02*
X13148277Y-15869698D01*
X13148277Y-15869698D02*
X13157801Y-15888746D01*
X13157801Y-15888746D02*
X13157801Y-15945888D01*
X13157801Y-15945888D02*
X13148277Y-15964936D01*
X13148277Y-15964936D02*
X13138753Y-15974460D01*
X13138753Y-15974460D02*
X13119706Y-15983984D01*
X13119706Y-15983984D02*
X13091134Y-15983984D01*
X13272087Y-15983984D02*
X13253039Y-15974460D01*
X13253039Y-15974460D02*
X13243515Y-15955412D01*
X13243515Y-15955412D02*
X13243515Y-15783984D01*
X13424468Y-15974460D02*
X13405420Y-15983984D01*
X13405420Y-15983984D02*
X13367325Y-15983984D01*
X13367325Y-15983984D02*
X13348277Y-15974460D01*
X13348277Y-15974460D02*
X13338753Y-15955412D01*
X13338753Y-15955412D02*
X13338753Y-15879222D01*
X13338753Y-15879222D02*
X13348277Y-15860174D01*
X13348277Y-15860174D02*
X13367325Y-15850650D01*
X13367325Y-15850650D02*
X13405420Y-15850650D01*
X13405420Y-15850650D02*
X13424468Y-15860174D01*
X13424468Y-15860174D02*
X13433991Y-15879222D01*
X13433991Y-15879222D02*
X13433991Y-15898269D01*
X13433991Y-15898269D02*
X13338753Y-15917317D01*
X13510182Y-15974460D02*
X13529230Y-15983984D01*
X13529230Y-15983984D02*
X13567325Y-15983984D01*
X13567325Y-15983984D02*
X13586372Y-15974460D01*
X13586372Y-15974460D02*
X13595896Y-15955412D01*
X13595896Y-15955412D02*
X13595896Y-15945888D01*
X13595896Y-15945888D02*
X13586372Y-15926841D01*
X13586372Y-15926841D02*
X13567325Y-15917317D01*
X13567325Y-15917317D02*
X13538753Y-15917317D01*
X13538753Y-15917317D02*
X13519706Y-15907793D01*
X13519706Y-15907793D02*
X13510182Y-15888746D01*
X13510182Y-15888746D02*
X13510182Y-15879222D01*
X13510182Y-15879222D02*
X13519706Y-15860174D01*
X13519706Y-15860174D02*
X13538753Y-15850650D01*
X13538753Y-15850650D02*
X13567325Y-15850650D01*
X13567325Y-15850650D02*
X13586372Y-15860174D01*
X13662563Y-16060174D02*
X13672087Y-16050650D01*
X13672087Y-16050650D02*
X13691134Y-16022079D01*
X13691134Y-16022079D02*
X13700658Y-16003031D01*
X13700658Y-16003031D02*
X13710182Y-15974460D01*
X13710182Y-15974460D02*
X13719706Y-15926841D01*
X13719706Y-15926841D02*
X13719706Y-15888746D01*
X13719706Y-15888746D02*
X13710182Y-15841127D01*
X13710182Y-15841127D02*
X13700658Y-15812555D01*
X13700658Y-15812555D02*
X13691134Y-15793508D01*
X13691134Y-15793508D02*
X13672087Y-15764936D01*
X13672087Y-15764936D02*
X13662563Y-15755412D01*
D14*
X8811500Y-16080500D02*
X8811500Y-16232500D01*
X8735500Y-16156500D02*
X8887500Y-16156500D01*
D11*
X9253039Y-16247984D02*
X9138753Y-16247984D01*
X9195896Y-16247984D02*
X9195896Y-16047984D01*
X9195896Y-16047984D02*
X9176848Y-16076555D01*
X9176848Y-16076555D02*
X9157801Y-16095603D01*
X9157801Y-16095603D02*
X9138753Y-16105127D01*
X9338753Y-16228936D02*
X9348277Y-16238460D01*
X9348277Y-16238460D02*
X9338753Y-16247984D01*
X9338753Y-16247984D02*
X9329229Y-16238460D01*
X9329229Y-16238460D02*
X9338753Y-16228936D01*
X9338753Y-16228936D02*
X9338753Y-16247984D01*
X9529229Y-16047984D02*
X9433991Y-16047984D01*
X9433991Y-16047984D02*
X9424467Y-16143222D01*
X9424467Y-16143222D02*
X9433991Y-16133698D01*
X9433991Y-16133698D02*
X9453039Y-16124174D01*
X9453039Y-16124174D02*
X9500658Y-16124174D01*
X9500658Y-16124174D02*
X9519705Y-16133698D01*
X9519705Y-16133698D02*
X9529229Y-16143222D01*
X9529229Y-16143222D02*
X9538753Y-16162269D01*
X9538753Y-16162269D02*
X9538753Y-16209888D01*
X9538753Y-16209888D02*
X9529229Y-16228936D01*
X9529229Y-16228936D02*
X9519705Y-16238460D01*
X9519705Y-16238460D02*
X9500658Y-16247984D01*
X9500658Y-16247984D02*
X9453039Y-16247984D01*
X9453039Y-16247984D02*
X9433991Y-16238460D01*
X9433991Y-16238460D02*
X9424467Y-16228936D01*
X9614944Y-16067031D02*
X9624467Y-16057508D01*
X9624467Y-16057508D02*
X9643515Y-16047984D01*
X9643515Y-16047984D02*
X9691134Y-16047984D01*
X9691134Y-16047984D02*
X9710182Y-16057508D01*
X9710182Y-16057508D02*
X9719705Y-16067031D01*
X9719705Y-16067031D02*
X9729229Y-16086079D01*
X9729229Y-16086079D02*
X9729229Y-16105127D01*
X9729229Y-16105127D02*
X9719705Y-16133698D01*
X9719705Y-16133698D02*
X9605420Y-16247984D01*
X9605420Y-16247984D02*
X9729229Y-16247984D01*
X9853039Y-16047984D02*
X9872086Y-16047984D01*
X9872086Y-16047984D02*
X9891134Y-16057508D01*
X9891134Y-16057508D02*
X9900658Y-16067031D01*
X9900658Y-16067031D02*
X9910182Y-16086079D01*
X9910182Y-16086079D02*
X9919705Y-16124174D01*
X9919705Y-16124174D02*
X9919705Y-16171793D01*
X9919705Y-16171793D02*
X9910182Y-16209888D01*
X9910182Y-16209888D02*
X9900658Y-16228936D01*
X9900658Y-16228936D02*
X9891134Y-16238460D01*
X9891134Y-16238460D02*
X9872086Y-16247984D01*
X9872086Y-16247984D02*
X9853039Y-16247984D01*
X9853039Y-16247984D02*
X9833991Y-16238460D01*
X9833991Y-16238460D02*
X9824467Y-16228936D01*
X9824467Y-16228936D02*
X9814944Y-16209888D01*
X9814944Y-16209888D02*
X9805420Y-16171793D01*
X9805420Y-16171793D02*
X9805420Y-16124174D01*
X9805420Y-16124174D02*
X9814944Y-16086079D01*
X9814944Y-16086079D02*
X9824467Y-16067031D01*
X9824467Y-16067031D02*
X9833991Y-16057508D01*
X9833991Y-16057508D02*
X9853039Y-16047984D01*
X10005420Y-16247984D02*
X10005420Y-16114650D01*
X10005420Y-16133698D02*
X10014944Y-16124174D01*
X10014944Y-16124174D02*
X10033991Y-16114650D01*
X10033991Y-16114650D02*
X10062563Y-16114650D01*
X10062563Y-16114650D02*
X10081610Y-16124174D01*
X10081610Y-16124174D02*
X10091134Y-16143222D01*
X10091134Y-16143222D02*
X10091134Y-16247984D01*
X10091134Y-16143222D02*
X10100658Y-16124174D01*
X10100658Y-16124174D02*
X10119705Y-16114650D01*
X10119705Y-16114650D02*
X10148277Y-16114650D01*
X10148277Y-16114650D02*
X10167325Y-16124174D01*
X10167325Y-16124174D02*
X10176848Y-16143222D01*
X10176848Y-16143222D02*
X10176848Y-16247984D01*
X10272086Y-16247984D02*
X10272086Y-16114650D01*
X10272086Y-16133698D02*
X10281610Y-16124174D01*
X10281610Y-16124174D02*
X10300658Y-16114650D01*
X10300658Y-16114650D02*
X10329229Y-16114650D01*
X10329229Y-16114650D02*
X10348277Y-16124174D01*
X10348277Y-16124174D02*
X10357801Y-16143222D01*
X10357801Y-16143222D02*
X10357801Y-16247984D01*
X10357801Y-16143222D02*
X10367325Y-16124174D01*
X10367325Y-16124174D02*
X10386372Y-16114650D01*
X10386372Y-16114650D02*
X10414944Y-16114650D01*
X10414944Y-16114650D02*
X10433991Y-16124174D01*
X10433991Y-16124174D02*
X10443515Y-16143222D01*
X10443515Y-16143222D02*
X10443515Y-16247984D01*
X10833991Y-16038460D02*
X10662563Y-16295603D01*
X11091134Y-16047984D02*
X11110182Y-16047984D01*
X11110182Y-16047984D02*
X11129229Y-16057508D01*
X11129229Y-16057508D02*
X11138753Y-16067031D01*
X11138753Y-16067031D02*
X11148277Y-16086079D01*
X11148277Y-16086079D02*
X11157801Y-16124174D01*
X11157801Y-16124174D02*
X11157801Y-16171793D01*
X11157801Y-16171793D02*
X11148277Y-16209888D01*
X11148277Y-16209888D02*
X11138753Y-16228936D01*
X11138753Y-16228936D02*
X11129229Y-16238460D01*
X11129229Y-16238460D02*
X11110182Y-16247984D01*
X11110182Y-16247984D02*
X11091134Y-16247984D01*
X11091134Y-16247984D02*
X11072087Y-16238460D01*
X11072087Y-16238460D02*
X11062563Y-16228936D01*
X11062563Y-16228936D02*
X11053039Y-16209888D01*
X11053039Y-16209888D02*
X11043515Y-16171793D01*
X11043515Y-16171793D02*
X11043515Y-16124174D01*
X11043515Y-16124174D02*
X11053039Y-16086079D01*
X11053039Y-16086079D02*
X11062563Y-16067031D01*
X11062563Y-16067031D02*
X11072087Y-16057508D01*
X11072087Y-16057508D02*
X11091134Y-16047984D01*
X11243515Y-16228936D02*
X11253039Y-16238460D01*
X11253039Y-16238460D02*
X11243515Y-16247984D01*
X11243515Y-16247984D02*
X11233991Y-16238460D01*
X11233991Y-16238460D02*
X11243515Y-16228936D01*
X11243515Y-16228936D02*
X11243515Y-16247984D01*
X11376848Y-16047984D02*
X11395896Y-16047984D01*
X11395896Y-16047984D02*
X11414944Y-16057508D01*
X11414944Y-16057508D02*
X11424467Y-16067031D01*
X11424467Y-16067031D02*
X11433991Y-16086079D01*
X11433991Y-16086079D02*
X11443515Y-16124174D01*
X11443515Y-16124174D02*
X11443515Y-16171793D01*
X11443515Y-16171793D02*
X11433991Y-16209888D01*
X11433991Y-16209888D02*
X11424467Y-16228936D01*
X11424467Y-16228936D02*
X11414944Y-16238460D01*
X11414944Y-16238460D02*
X11395896Y-16247984D01*
X11395896Y-16247984D02*
X11376848Y-16247984D01*
X11376848Y-16247984D02*
X11357801Y-16238460D01*
X11357801Y-16238460D02*
X11348277Y-16228936D01*
X11348277Y-16228936D02*
X11338753Y-16209888D01*
X11338753Y-16209888D02*
X11329229Y-16171793D01*
X11329229Y-16171793D02*
X11329229Y-16124174D01*
X11329229Y-16124174D02*
X11338753Y-16086079D01*
X11338753Y-16086079D02*
X11348277Y-16067031D01*
X11348277Y-16067031D02*
X11357801Y-16057508D01*
X11357801Y-16057508D02*
X11376848Y-16047984D01*
X11624467Y-16047984D02*
X11529229Y-16047984D01*
X11529229Y-16047984D02*
X11519706Y-16143222D01*
X11519706Y-16143222D02*
X11529229Y-16133698D01*
X11529229Y-16133698D02*
X11548277Y-16124174D01*
X11548277Y-16124174D02*
X11595896Y-16124174D01*
X11595896Y-16124174D02*
X11614944Y-16133698D01*
X11614944Y-16133698D02*
X11624467Y-16143222D01*
X11624467Y-16143222D02*
X11633991Y-16162269D01*
X11633991Y-16162269D02*
X11633991Y-16209888D01*
X11633991Y-16209888D02*
X11624467Y-16228936D01*
X11624467Y-16228936D02*
X11614944Y-16238460D01*
X11614944Y-16238460D02*
X11595896Y-16247984D01*
X11595896Y-16247984D02*
X11548277Y-16247984D01*
X11548277Y-16247984D02*
X11529229Y-16238460D01*
X11529229Y-16238460D02*
X11519706Y-16228936D01*
X11729229Y-16247984D02*
X11767325Y-16247984D01*
X11767325Y-16247984D02*
X11786372Y-16238460D01*
X11786372Y-16238460D02*
X11795896Y-16228936D01*
X11795896Y-16228936D02*
X11814944Y-16200365D01*
X11814944Y-16200365D02*
X11824467Y-16162269D01*
X11824467Y-16162269D02*
X11824467Y-16086079D01*
X11824467Y-16086079D02*
X11814944Y-16067031D01*
X11814944Y-16067031D02*
X11805420Y-16057508D01*
X11805420Y-16057508D02*
X11786372Y-16047984D01*
X11786372Y-16047984D02*
X11748277Y-16047984D01*
X11748277Y-16047984D02*
X11729229Y-16057508D01*
X11729229Y-16057508D02*
X11719706Y-16067031D01*
X11719706Y-16067031D02*
X11710182Y-16086079D01*
X11710182Y-16086079D02*
X11710182Y-16133698D01*
X11710182Y-16133698D02*
X11719706Y-16152746D01*
X11719706Y-16152746D02*
X11729229Y-16162269D01*
X11729229Y-16162269D02*
X11748277Y-16171793D01*
X11748277Y-16171793D02*
X11786372Y-16171793D01*
X11786372Y-16171793D02*
X11805420Y-16162269D01*
X11805420Y-16162269D02*
X11814944Y-16152746D01*
X11814944Y-16152746D02*
X11824467Y-16133698D01*
X11938753Y-16133698D02*
X11919706Y-16124174D01*
X11919706Y-16124174D02*
X11910182Y-16114650D01*
X11910182Y-16114650D02*
X11900658Y-16095603D01*
X11900658Y-16095603D02*
X11900658Y-16086079D01*
X11900658Y-16086079D02*
X11910182Y-16067031D01*
X11910182Y-16067031D02*
X11919706Y-16057508D01*
X11919706Y-16057508D02*
X11938753Y-16047984D01*
X11938753Y-16047984D02*
X11976848Y-16047984D01*
X11976848Y-16047984D02*
X11995896Y-16057508D01*
X11995896Y-16057508D02*
X12005420Y-16067031D01*
X12005420Y-16067031D02*
X12014944Y-16086079D01*
X12014944Y-16086079D02*
X12014944Y-16095603D01*
X12014944Y-16095603D02*
X12005420Y-16114650D01*
X12005420Y-16114650D02*
X11995896Y-16124174D01*
X11995896Y-16124174D02*
X11976848Y-16133698D01*
X11976848Y-16133698D02*
X11938753Y-16133698D01*
X11938753Y-16133698D02*
X11919706Y-16143222D01*
X11919706Y-16143222D02*
X11910182Y-16152746D01*
X11910182Y-16152746D02*
X11900658Y-16171793D01*
X11900658Y-16171793D02*
X11900658Y-16209888D01*
X11900658Y-16209888D02*
X11910182Y-16228936D01*
X11910182Y-16228936D02*
X11919706Y-16238460D01*
X11919706Y-16238460D02*
X11938753Y-16247984D01*
X11938753Y-16247984D02*
X11976848Y-16247984D01*
X11976848Y-16247984D02*
X11995896Y-16238460D01*
X11995896Y-16238460D02*
X12005420Y-16228936D01*
X12005420Y-16228936D02*
X12014944Y-16209888D01*
X12014944Y-16209888D02*
X12014944Y-16171793D01*
X12014944Y-16171793D02*
X12005420Y-16152746D01*
X12005420Y-16152746D02*
X11995896Y-16143222D01*
X11995896Y-16143222D02*
X11976848Y-16133698D01*
X12091134Y-16047984D02*
X12091134Y-16086079D01*
X12167325Y-16047984D02*
X12167325Y-16086079D01*
X12462563Y-16324174D02*
X12453039Y-16314650D01*
X12453039Y-16314650D02*
X12433991Y-16286079D01*
X12433991Y-16286079D02*
X12424468Y-16267031D01*
X12424468Y-16267031D02*
X12414944Y-16238460D01*
X12414944Y-16238460D02*
X12405420Y-16190841D01*
X12405420Y-16190841D02*
X12405420Y-16152746D01*
X12405420Y-16152746D02*
X12414944Y-16105127D01*
X12414944Y-16105127D02*
X12424468Y-16076555D01*
X12424468Y-16076555D02*
X12433991Y-16057508D01*
X12433991Y-16057508D02*
X12453039Y-16028936D01*
X12453039Y-16028936D02*
X12462563Y-16019412D01*
X12529229Y-16067031D02*
X12538753Y-16057508D01*
X12538753Y-16057508D02*
X12557801Y-16047984D01*
X12557801Y-16047984D02*
X12605420Y-16047984D01*
X12605420Y-16047984D02*
X12624468Y-16057508D01*
X12624468Y-16057508D02*
X12633991Y-16067031D01*
X12633991Y-16067031D02*
X12643515Y-16086079D01*
X12643515Y-16086079D02*
X12643515Y-16105127D01*
X12643515Y-16105127D02*
X12633991Y-16133698D01*
X12633991Y-16133698D02*
X12519706Y-16247984D01*
X12519706Y-16247984D02*
X12643515Y-16247984D01*
X12881610Y-16247984D02*
X12881610Y-16047984D01*
X12967325Y-16247984D02*
X12967325Y-16143222D01*
X12967325Y-16143222D02*
X12957801Y-16124174D01*
X12957801Y-16124174D02*
X12938753Y-16114650D01*
X12938753Y-16114650D02*
X12910182Y-16114650D01*
X12910182Y-16114650D02*
X12891134Y-16124174D01*
X12891134Y-16124174D02*
X12881610Y-16133698D01*
X13091134Y-16247984D02*
X13072087Y-16238460D01*
X13072087Y-16238460D02*
X13062563Y-16228936D01*
X13062563Y-16228936D02*
X13053039Y-16209888D01*
X13053039Y-16209888D02*
X13053039Y-16152746D01*
X13053039Y-16152746D02*
X13062563Y-16133698D01*
X13062563Y-16133698D02*
X13072087Y-16124174D01*
X13072087Y-16124174D02*
X13091134Y-16114650D01*
X13091134Y-16114650D02*
X13119706Y-16114650D01*
X13119706Y-16114650D02*
X13138753Y-16124174D01*
X13138753Y-16124174D02*
X13148277Y-16133698D01*
X13148277Y-16133698D02*
X13157801Y-16152746D01*
X13157801Y-16152746D02*
X13157801Y-16209888D01*
X13157801Y-16209888D02*
X13148277Y-16228936D01*
X13148277Y-16228936D02*
X13138753Y-16238460D01*
X13138753Y-16238460D02*
X13119706Y-16247984D01*
X13119706Y-16247984D02*
X13091134Y-16247984D01*
X13272087Y-16247984D02*
X13253039Y-16238460D01*
X13253039Y-16238460D02*
X13243515Y-16219412D01*
X13243515Y-16219412D02*
X13243515Y-16047984D01*
X13424468Y-16238460D02*
X13405420Y-16247984D01*
X13405420Y-16247984D02*
X13367325Y-16247984D01*
X13367325Y-16247984D02*
X13348277Y-16238460D01*
X13348277Y-16238460D02*
X13338753Y-16219412D01*
X13338753Y-16219412D02*
X13338753Y-16143222D01*
X13338753Y-16143222D02*
X13348277Y-16124174D01*
X13348277Y-16124174D02*
X13367325Y-16114650D01*
X13367325Y-16114650D02*
X13405420Y-16114650D01*
X13405420Y-16114650D02*
X13424468Y-16124174D01*
X13424468Y-16124174D02*
X13433991Y-16143222D01*
X13433991Y-16143222D02*
X13433991Y-16162269D01*
X13433991Y-16162269D02*
X13338753Y-16181317D01*
X13510182Y-16238460D02*
X13529230Y-16247984D01*
X13529230Y-16247984D02*
X13567325Y-16247984D01*
X13567325Y-16247984D02*
X13586372Y-16238460D01*
X13586372Y-16238460D02*
X13595896Y-16219412D01*
X13595896Y-16219412D02*
X13595896Y-16209888D01*
X13595896Y-16209888D02*
X13586372Y-16190841D01*
X13586372Y-16190841D02*
X13567325Y-16181317D01*
X13567325Y-16181317D02*
X13538753Y-16181317D01*
X13538753Y-16181317D02*
X13519706Y-16171793D01*
X13519706Y-16171793D02*
X13510182Y-16152746D01*
X13510182Y-16152746D02*
X13510182Y-16143222D01*
X13510182Y-16143222D02*
X13519706Y-16124174D01*
X13519706Y-16124174D02*
X13538753Y-16114650D01*
X13538753Y-16114650D02*
X13567325Y-16114650D01*
X13567325Y-16114650D02*
X13586372Y-16124174D01*
X13662563Y-16324174D02*
X13672087Y-16314650D01*
X13672087Y-16314650D02*
X13691134Y-16286079D01*
X13691134Y-16286079D02*
X13700658Y-16267031D01*
X13700658Y-16267031D02*
X13710182Y-16238460D01*
X13710182Y-16238460D02*
X13719706Y-16190841D01*
X13719706Y-16190841D02*
X13719706Y-16152746D01*
X13719706Y-16152746D02*
X13710182Y-16105127D01*
X13710182Y-16105127D02*
X13700658Y-16076555D01*
X13700658Y-16076555D02*
X13691134Y-16057508D01*
X13691134Y-16057508D02*
X13672087Y-16028936D01*
X13672087Y-16028936D02*
X13662563Y-16019412D01*
M02*
