%TF.GenerationSoftware,KiCad,Pcbnew,9.0.2*%
%TF.CreationDate,2025-06-20T14:16:00-03:00*%
%TF.ProjectId,rome,726f6d65-2e6b-4696-9361-645f70636258,0.1*%
%TF.SameCoordinates,Original*%
%TF.FileFunction,Soldermask,Top*%
%TF.FilePolarity,Negative*%
%FSLAX46Y46*%
G04 Gerber Fmt 4.6, Leading zero omitted, Abs format (unit mm)*
G04 Created by KiCad (PCBNEW 9.0.2) date 2025-06-20 14:16:00*
%MOMM*%
%LPD*%
G01*
G04 APERTURE LIST*
G04 Aperture macros list*
%AMRoundRect*
0 Rectangle with rounded corners*
0 $1 Rounding radius*
0 $2 $3 $4 $5 $6 $7 $8 $9 X,Y pos of 4 corners*
0 Add a 4 corners polygon primitive as box body*
4,1,4,$2,$3,$4,$5,$6,$7,$8,$9,$2,$3,0*
0 Add four circle primitives for the rounded corners*
1,1,$1+$1,$2,$3*
1,1,$1+$1,$4,$5*
1,1,$1+$1,$6,$7*
1,1,$1+$1,$8,$9*
0 Add four rect primitives between the rounded corners*
20,1,$1+$1,$2,$3,$4,$5,0*
20,1,$1+$1,$4,$5,$6,$7,0*
20,1,$1+$1,$6,$7,$8,$9,0*
20,1,$1+$1,$8,$9,$2,$3,0*%
G04 Aperture macros list end*
%ADD10R,3.000000X3.000000*%
%ADD11C,3.000000*%
%ADD12R,1.700000X1.700000*%
%ADD13C,1.700000*%
%ADD14R,1.905000X2.000000*%
%ADD15O,1.905000X2.000000*%
%ADD16RoundRect,0.249999X-0.850001X0.850001X-0.850001X-0.850001X0.850001X-0.850001X0.850001X0.850001X0*%
%ADD17C,2.200000*%
G04 APERTURE END LIST*
D10*
%TO.C,J1*%
X182880000Y-101600000D03*
D11*
X182880000Y-106680000D03*
%TD*%
D12*
%TO.C,HV1*%
X124300000Y-124460000D03*
D13*
X124300000Y-127000000D03*
X124300000Y-129540000D03*
X124300000Y-132080000D03*
X124300000Y-134620000D03*
X124300000Y-137160000D03*
%TD*%
D12*
%TO.C,LVE1*%
X104140000Y-124460000D03*
D13*
X104140000Y-127000000D03*
X104140000Y-129540000D03*
X104140000Y-132080000D03*
X104140000Y-134620000D03*
X104140000Y-137160000D03*
%TD*%
D12*
%TO.C,DEVE1*%
X149860000Y-73660000D03*
D13*
X149860000Y-76200000D03*
X149860000Y-78740000D03*
X149860000Y-81280000D03*
X149860000Y-83820000D03*
X149860000Y-86360000D03*
X149860000Y-88900000D03*
X149860000Y-91440000D03*
X149860000Y-93980000D03*
X149860000Y-96520000D03*
X149860000Y-99060000D03*
X149860000Y-101600000D03*
X149860000Y-104140000D03*
X149860000Y-106680000D03*
X149860000Y-109220000D03*
%TD*%
D12*
%TO.C,HBE1*%
X149860000Y-124460000D03*
D13*
X149860000Y-127000000D03*
X149860000Y-129540000D03*
X149860000Y-132080000D03*
X149860000Y-134620000D03*
X149860000Y-137160000D03*
%TD*%
D12*
%TO.C,LV1*%
X114300000Y-124460000D03*
D13*
X114300000Y-127000000D03*
X114300000Y-129540000D03*
X114300000Y-132080000D03*
X114300000Y-134620000D03*
X114300000Y-137160000D03*
%TD*%
D11*
%TO.C,UNK_HOLE_1*%
X93980000Y-144780000D03*
%TD*%
%TO.C,UNK_HOLE_1*%
X93980000Y-68580000D03*
%TD*%
D12*
%TO.C,HBOUT2*%
X178900000Y-134620000D03*
D13*
X178900000Y-137160000D03*
%TD*%
D12*
%TO.C,HBIN1*%
X165100000Y-128620000D03*
D13*
X165100000Y-131160000D03*
%TD*%
D12*
%TO.C,HVE1*%
X134620000Y-124460000D03*
D13*
X134620000Y-127000000D03*
X134620000Y-129540000D03*
X134620000Y-132080000D03*
X134620000Y-134620000D03*
X134620000Y-137160000D03*
%TD*%
D12*
%TO.C,DEV1*%
X139700000Y-73660000D03*
D13*
X139700000Y-76200000D03*
X139700000Y-78740000D03*
X139700000Y-81280000D03*
X139700000Y-83820000D03*
X139700000Y-86360000D03*
X139700000Y-88900000D03*
X139700000Y-91440000D03*
X139700000Y-93980000D03*
X139700000Y-96520000D03*
X139700000Y-99060000D03*
X139700000Y-101600000D03*
X139700000Y-104140000D03*
X139700000Y-106680000D03*
X139700000Y-109220000D03*
%TD*%
D14*
%TO.C,U3*%
X172720000Y-76200000D03*
D15*
X170180000Y-76200000D03*
X167640000Y-76200000D03*
%TD*%
D12*
%TO.C,J2*%
X167640000Y-93980000D03*
D13*
X170180000Y-93980000D03*
X167640000Y-96520000D03*
X170180000Y-96520000D03*
X167640000Y-99060000D03*
X170180000Y-99060000D03*
X167640000Y-101600000D03*
X170180000Y-101600000D03*
%TD*%
D12*
%TO.C,DEV2*%
X113500000Y-73660000D03*
D13*
X113500000Y-76200000D03*
X113500000Y-78740000D03*
X113500000Y-81280000D03*
X113500000Y-83820000D03*
X113500000Y-86360000D03*
X113500000Y-88900000D03*
X113500000Y-91440000D03*
X113500000Y-93980000D03*
X113500000Y-96520000D03*
X113500000Y-99060000D03*
X113500000Y-101600000D03*
X113500000Y-104140000D03*
X113500000Y-106680000D03*
X113500000Y-109220000D03*
%TD*%
D12*
%TO.C,HBE2*%
X190500000Y-129540000D03*
D13*
X190500000Y-132080000D03*
X190500000Y-134620000D03*
X190500000Y-137160000D03*
%TD*%
D11*
%TO.C,UNK_HOLE_1*%
X193040000Y-144780000D03*
%TD*%
%TO.C,UNK_HOLE_1*%
X193040000Y-68580000D03*
%TD*%
D12*
%TO.C,HBIN2*%
X165100000Y-134620000D03*
D13*
X165100000Y-137160000D03*
%TD*%
D16*
%TO.C,D3*%
X182880000Y-76200000D03*
D17*
X182880000Y-86360000D03*
%TD*%
D12*
%TO.C,HBOUT1*%
X178900000Y-128620000D03*
D13*
X178900000Y-131160000D03*
%TD*%
D12*
%TO.C,HBP1*%
X162100000Y-120620000D03*
D13*
X162100000Y-123160000D03*
%TD*%
D12*
%TO.C,DEVE2*%
X103340000Y-73660000D03*
D13*
X103340000Y-76200000D03*
X103340000Y-78740000D03*
X103340000Y-81280000D03*
X103340000Y-83820000D03*
X103340000Y-86360000D03*
X103340000Y-88900000D03*
X103340000Y-91440000D03*
X103340000Y-93980000D03*
X103340000Y-96520000D03*
X103340000Y-99060000D03*
X103340000Y-101600000D03*
X103340000Y-104140000D03*
X103340000Y-106680000D03*
X103340000Y-109220000D03*
%TD*%
M02*
