%TF.GenerationSoftware,KiCad,Pcbnew,9.0.2*%
%TF.CreationDate,2025-06-11T21:10:13-03:00*%
%TF.ProjectId,rome,726f6d65-2e6b-4696-9361-645f70636258,0.1*%
%TF.SameCoordinates,Original*%
%TF.FileFunction,Copper,L2,Bot*%
%TF.FilePolarity,Positive*%
%FSLAX46Y46*%
G04 Gerber Fmt 4.6, Leading zero omitted, Abs format (unit mm)*
G04 Created by KiCad (PCBNEW 9.0.2) date 2025-06-11 21:10:13*
%MOMM*%
%LPD*%
G01*
G04 APERTURE LIST*
G04 Aperture macros list*
%AMRoundRect*
0 Rectangle with rounded corners*
0 $1 Rounding radius*
0 $2 $3 $4 $5 $6 $7 $8 $9 X,Y pos of 4 corners*
0 Add a 4 corners polygon primitive as box body*
4,1,4,$2,$3,$4,$5,$6,$7,$8,$9,$2,$3,0*
0 Add four circle primitives for the rounded corners*
1,1,$1+$1,$2,$3*
1,1,$1+$1,$4,$5*
1,1,$1+$1,$6,$7*
1,1,$1+$1,$8,$9*
0 Add four rect primitives between the rounded corners*
20,1,$1+$1,$2,$3,$4,$5,0*
20,1,$1+$1,$4,$5,$6,$7,0*
20,1,$1+$1,$6,$7,$8,$9,0*
20,1,$1+$1,$8,$9,$2,$3,0*%
G04 Aperture macros list end*
%TA.AperFunction,ComponentPad*%
%ADD10R,3.000000X3.000000*%
%TD*%
%TA.AperFunction,ComponentPad*%
%ADD11C,3.000000*%
%TD*%
%TA.AperFunction,ComponentPad*%
%ADD12R,1.700000X1.700000*%
%TD*%
%TA.AperFunction,ComponentPad*%
%ADD13C,1.700000*%
%TD*%
%TA.AperFunction,ComponentPad*%
%ADD14R,1.905000X2.000000*%
%TD*%
%TA.AperFunction,ComponentPad*%
%ADD15O,1.905000X2.000000*%
%TD*%
%TA.AperFunction,ComponentPad*%
%ADD16RoundRect,0.249999X-0.850001X0.850001X-0.850001X-0.850001X0.850001X-0.850001X0.850001X0.850001X0*%
%TD*%
%TA.AperFunction,ComponentPad*%
%ADD17C,2.200000*%
%TD*%
G04 APERTURE END LIST*
D10*
%TO.P,J1,1,Pin_1*%
%TO.N,VCC*%
X182880000Y-101600000D03*
D11*
%TO.P,J1,2,Pin_2*%
%TO.N,GND*%
X182880000Y-106680000D03*
%TD*%
D12*
%TO.P,HV1,1,Pin_1*%
%TO.N,HV1*%
X124300000Y-124460000D03*
D13*
%TO.P,HV1,2,Pin_2*%
%TO.N,HV2*%
X124300000Y-127000000D03*
%TO.P,HV1,3,Pin_3*%
%TO.N,+5V*%
X124300000Y-129540000D03*
%TO.P,HV1,4,Pin_4*%
%TO.N,GND*%
X124300000Y-132080000D03*
%TO.P,HV1,5,Pin_5*%
%TO.N,HV3*%
X124300000Y-134620000D03*
%TO.P,HV1,6,Pin_6*%
%TO.N,HV4*%
X124300000Y-137160000D03*
%TD*%
D12*
%TO.P,LVE1,1,Pin_1*%
%TO.N,LV1*%
X104140000Y-124460000D03*
D13*
%TO.P,LVE1,2,Pin_2*%
%TO.N,LV2*%
X104140000Y-127000000D03*
%TO.P,LVE1,3,Pin_3*%
%TO.N,+3.3V*%
X104140000Y-129540000D03*
%TO.P,LVE1,4,Pin_4*%
%TO.N,GND*%
X104140000Y-132080000D03*
%TO.P,LVE1,5,Pin_5*%
%TO.N,LV3*%
X104140000Y-134620000D03*
%TO.P,LVE1,6,Pin_6*%
%TO.N,LV4*%
X104140000Y-137160000D03*
%TD*%
D12*
%TO.P,DEVE1,1,Pin_1*%
%TO.N,+5V*%
X149860000Y-73660000D03*
D13*
%TO.P,DEVE1,2,Pin_2*%
%TO.N,GND*%
X149860000Y-76200000D03*
%TO.P,DEVE1,3,Pin_3*%
%TO.N,D13*%
X149860000Y-78740000D03*
%TO.P,DEVE1,4,Pin_4*%
%TO.N,D12*%
X149860000Y-81280000D03*
%TO.P,DEVE1,5,Pin_5*%
%TO.N,D14*%
X149860000Y-83820000D03*
%TO.P,DEVE1,6,Pin_6*%
%TO.N,D27*%
X149860000Y-86360000D03*
%TO.P,DEVE1,7,Pin_7*%
%TO.N,D26*%
X149860000Y-88900000D03*
%TO.P,DEVE1,8,Pin_8*%
%TO.N,D25*%
X149860000Y-91440000D03*
%TO.P,DEVE1,9,Pin_9*%
%TO.N,D33*%
X149860000Y-93980000D03*
%TO.P,DEVE1,10,Pin_10*%
%TO.N,D32*%
X149860000Y-96520000D03*
%TO.P,DEVE1,11,Pin_11*%
%TO.N,D35*%
X149860000Y-99060000D03*
%TO.P,DEVE1,12,Pin_12*%
%TO.N,D34*%
X149860000Y-101600000D03*
%TO.P,DEVE1,13,Pin_13*%
%TO.N,VN*%
X149860000Y-104140000D03*
%TO.P,DEVE1,14,Pin_14*%
%TO.N,VP*%
X149860000Y-106680000D03*
%TO.P,DEVE1,15,Pin_15*%
%TO.N,EN*%
X149860000Y-109220000D03*
%TD*%
D12*
%TO.P,HBE1,1,Pin_1*%
%TO.N,VIN*%
X149860000Y-124460000D03*
D13*
%TO.P,HBE1,2,Pin_2*%
%TO.N,GND*%
X149860000Y-127000000D03*
%TO.P,HBE1,3,Pin_3*%
%TO.N,IN1*%
X149860000Y-129540000D03*
%TO.P,HBE1,4,Pin_4*%
%TO.N,IN2*%
X149860000Y-132080000D03*
%TO.P,HBE1,5,Pin_5*%
%TO.N,IN3*%
X149860000Y-134620000D03*
%TO.P,HBE1,6,Pin_6*%
%TO.N,IN4*%
X149860000Y-137160000D03*
%TD*%
D12*
%TO.P,LV1,1,Pin_1*%
%TO.N,LV1*%
X114300000Y-124460000D03*
D13*
%TO.P,LV1,2,Pin_2*%
%TO.N,LV2*%
X114300000Y-127000000D03*
%TO.P,LV1,3,Pin_3*%
%TO.N,+3.3V*%
X114300000Y-129540000D03*
%TO.P,LV1,4,Pin_4*%
%TO.N,GND*%
X114300000Y-132080000D03*
%TO.P,LV1,5,Pin_5*%
%TO.N,LV3*%
X114300000Y-134620000D03*
%TO.P,LV1,6,Pin_6*%
%TO.N,LV4*%
X114300000Y-137160000D03*
%TD*%
D12*
%TO.P,HBOUT2,1,Pin_1*%
%TO.N,OUTB1*%
X178900000Y-134620000D03*
D13*
%TO.P,HBOUT2,2,Pin_2*%
%TO.N,OUTB2*%
X178900000Y-137160000D03*
%TD*%
D12*
%TO.P,HBIN1,1,Pin_1*%
%TO.N,IN1*%
X165100000Y-128620000D03*
D13*
%TO.P,HBIN1,2,Pin_2*%
%TO.N,IN2*%
X165100000Y-131160000D03*
%TD*%
D12*
%TO.P,HVE1,1,Pin_1*%
%TO.N,HV1*%
X134620000Y-124460000D03*
D13*
%TO.P,HVE1,2,Pin_2*%
%TO.N,HV2*%
X134620000Y-127000000D03*
%TO.P,HVE1,3,Pin_3*%
%TO.N,+5V*%
X134620000Y-129540000D03*
%TO.P,HVE1,4,Pin_4*%
%TO.N,GND*%
X134620000Y-132080000D03*
%TO.P,HVE1,5,Pin_5*%
%TO.N,HV3*%
X134620000Y-134620000D03*
%TO.P,HVE1,6,Pin_6*%
%TO.N,HV4*%
X134620000Y-137160000D03*
%TD*%
D12*
%TO.P,DEV1,1,Pin_1*%
%TO.N,+5V*%
X139700000Y-73660000D03*
D13*
%TO.P,DEV1,2,Pin_2*%
%TO.N,GND*%
X139700000Y-76200000D03*
%TO.P,DEV1,3,Pin_3*%
%TO.N,D13*%
X139700000Y-78740000D03*
%TO.P,DEV1,4,Pin_4*%
%TO.N,D12*%
X139700000Y-81280000D03*
%TO.P,DEV1,5,Pin_5*%
%TO.N,D14*%
X139700000Y-83820000D03*
%TO.P,DEV1,6,Pin_6*%
%TO.N,D27*%
X139700000Y-86360000D03*
%TO.P,DEV1,7,Pin_7*%
%TO.N,D26*%
X139700000Y-88900000D03*
%TO.P,DEV1,8,Pin_8*%
%TO.N,D25*%
X139700000Y-91440000D03*
%TO.P,DEV1,9,Pin_9*%
%TO.N,D33*%
X139700000Y-93980000D03*
%TO.P,DEV1,10,Pin_10*%
%TO.N,D32*%
X139700000Y-96520000D03*
%TO.P,DEV1,11,Pin_11*%
%TO.N,D35*%
X139700000Y-99060000D03*
%TO.P,DEV1,12,Pin_12*%
%TO.N,D34*%
X139700000Y-101600000D03*
%TO.P,DEV1,13,Pin_13*%
%TO.N,VN*%
X139700000Y-104140000D03*
%TO.P,DEV1,14,Pin_14*%
%TO.N,VP*%
X139700000Y-106680000D03*
%TO.P,DEV1,15,Pin_15*%
%TO.N,EN*%
X139700000Y-109220000D03*
%TD*%
D14*
%TO.P,U3,1,IN*%
%TO.N,Net-(D3-K)*%
X172720000Y-76200000D03*
D15*
%TO.P,U3,2,GND*%
%TO.N,GND*%
X170180000Y-76200000D03*
%TO.P,U3,3,OUT*%
%TO.N,+5V*%
X167640000Y-76200000D03*
%TD*%
D12*
%TO.P,J2,1,Pin_1*%
%TO.N,+5V*%
X167640000Y-93980000D03*
D13*
%TO.P,J2,2,Pin_2*%
%TO.N,GND*%
X170180000Y-93980000D03*
%TO.P,J2,3,Pin_3*%
%TO.N,+5V*%
X167640000Y-96520000D03*
%TO.P,J2,4,Pin_4*%
%TO.N,GND*%
X170180000Y-96520000D03*
%TO.P,J2,5,Pin_5*%
%TO.N,+5V*%
X167640000Y-99060000D03*
%TO.P,J2,6,Pin_6*%
%TO.N,GND*%
X170180000Y-99060000D03*
%TO.P,J2,7,Pin_7*%
%TO.N,+5V*%
X167640000Y-101600000D03*
%TO.P,J2,8,Pin_8*%
%TO.N,GND*%
X170180000Y-101600000D03*
%TD*%
D12*
%TO.P,DEV2,1,Pin_1*%
%TO.N,+3.3V*%
X114300000Y-73660000D03*
D13*
%TO.P,DEV2,2,Pin_2*%
%TO.N,GND*%
X114300000Y-76200000D03*
%TO.P,DEV2,3,Pin_3*%
%TO.N,D15*%
X114300000Y-78740000D03*
%TO.P,DEV2,4,Pin_4*%
%TO.N,D2*%
X114300000Y-81280000D03*
%TO.P,DEV2,5,Pin_5*%
%TO.N,D4*%
X114300000Y-83820000D03*
%TO.P,DEV2,6,Pin_6*%
%TO.N,RX2*%
X114300000Y-86360000D03*
%TO.P,DEV2,7,Pin_7*%
%TO.N,TX2*%
X114300000Y-88900000D03*
%TO.P,DEV2,8,Pin_8*%
%TO.N,D5*%
X114300000Y-91440000D03*
%TO.P,DEV2,9,Pin_9*%
%TO.N,D18*%
X114300000Y-93980000D03*
%TO.P,DEV2,10,Pin_10*%
%TO.N,D19*%
X114300000Y-96520000D03*
%TO.P,DEV2,11,Pin_11*%
%TO.N,D21*%
X114300000Y-99060000D03*
%TO.P,DEV2,12,Pin_12*%
%TO.N,RX0*%
X114300000Y-101600000D03*
%TO.P,DEV2,13,Pin_13*%
%TO.N,TX0*%
X114300000Y-104140000D03*
%TO.P,DEV2,14,Pin_14*%
%TO.N,D22*%
X114300000Y-106680000D03*
%TO.P,DEV2,15,Pin_15*%
%TO.N,D23*%
X114300000Y-109220000D03*
%TD*%
D12*
%TO.P,HBE2,1,Pin_1*%
%TO.N,OUTA1*%
X190500000Y-129540000D03*
D13*
%TO.P,HBE2,2,Pin_2*%
%TO.N,OUTA2*%
X190500000Y-132080000D03*
%TO.P,HBE2,3,Pin_3*%
%TO.N,OUTB1*%
X190500000Y-134620000D03*
%TO.P,HBE2,4,Pin_4*%
%TO.N,OUTB2*%
X190500000Y-137160000D03*
%TD*%
D12*
%TO.P,HBIN2,1,Pin_1*%
%TO.N,IN3*%
X165100000Y-134620000D03*
D13*
%TO.P,HBIN2,2,Pin_2*%
%TO.N,IN4*%
X165100000Y-137160000D03*
%TD*%
D16*
%TO.P,D3,1,K*%
%TO.N,Net-(D3-K)*%
X182880000Y-76200000D03*
D17*
%TO.P,D3,2,A*%
%TO.N,VCC*%
X182880000Y-86360000D03*
%TD*%
D12*
%TO.P,HBOUT1,1,Pin_1*%
%TO.N,OUTA1*%
X178900000Y-128620000D03*
D13*
%TO.P,HBOUT1,2,Pin_2*%
%TO.N,OUTA2*%
X178900000Y-131160000D03*
%TD*%
D12*
%TO.P,HBP1,1,Pin_1*%
%TO.N,VIN*%
X162100000Y-120620000D03*
D13*
%TO.P,HBP1,2,Pin_2*%
%TO.N,GND*%
X162100000Y-123160000D03*
%TD*%
D12*
%TO.P,DEVE2,1,Pin_1*%
%TO.N,+3.3V*%
X104140000Y-73660000D03*
D13*
%TO.P,DEVE2,2,Pin_2*%
%TO.N,GND*%
X104140000Y-76200000D03*
%TO.P,DEVE2,3,Pin_3*%
%TO.N,D15*%
X104140000Y-78740000D03*
%TO.P,DEVE2,4,Pin_4*%
%TO.N,D2*%
X104140000Y-81280000D03*
%TO.P,DEVE2,5,Pin_5*%
%TO.N,D4*%
X104140000Y-83820000D03*
%TO.P,DEVE2,6,Pin_6*%
%TO.N,RX2*%
X104140000Y-86360000D03*
%TO.P,DEVE2,7,Pin_7*%
%TO.N,TX2*%
X104140000Y-88900000D03*
%TO.P,DEVE2,8,Pin_8*%
%TO.N,D5*%
X104140000Y-91440000D03*
%TO.P,DEVE2,9,Pin_9*%
%TO.N,D18*%
X104140000Y-93980000D03*
%TO.P,DEVE2,10,Pin_10*%
%TO.N,D19*%
X104140000Y-96520000D03*
%TO.P,DEVE2,11,Pin_11*%
%TO.N,D21*%
X104140000Y-99060000D03*
%TO.P,DEVE2,12,Pin_12*%
%TO.N,RX0*%
X104140000Y-101600000D03*
%TO.P,DEVE2,13,Pin_13*%
%TO.N,TX0*%
X104140000Y-104140000D03*
%TO.P,DEVE2,14,Pin_14*%
%TO.N,D22*%
X104140000Y-106680000D03*
%TO.P,DEVE2,15,Pin_15*%
%TO.N,D23*%
X104140000Y-109220000D03*
%TD*%
M02*
