M48
; DRILL file {KiCad 9.0.2} date 2025-06-20T14:16:06-0300
; FORMAT={-:-/ absolute / inch / decimal}
; #@! TF.CreationDate,2025-06-20T14:16:06-03:00
; #@! TF.GenerationSoftware,Kicad,Pcbnew,9.0.2
; #@! TF.FileFunction,Plated,1,2,PTH
FMAT,2
INCH
; #@! TA.AperFunction,Plated,PTH,ComponentDrill
T1C0.0394
; #@! TA.AperFunction,Plated,PTH,ComponentDrill
T2C0.0433
; #@! TA.AperFunction,Plated,PTH,ComponentDrill
T3C0.0598
%
G90
G05
T1
X4.0685Y-2.9
X4.0685Y-3.0
X4.0685Y-3.1
X4.0685Y-3.2
X4.0685Y-3.3
X4.0685Y-3.4
X4.0685Y-3.5
X4.0685Y-3.6
X4.0685Y-3.7
X4.0685Y-3.8
X4.0685Y-3.9
X4.0685Y-4.0
X4.0685Y-4.1
X4.0685Y-4.2
X4.0685Y-4.3
X4.1Y-4.9
X4.1Y-5.0
X4.1Y-5.1
X4.1Y-5.2
X4.1Y-5.3
X4.1Y-5.4
X4.4685Y-2.9
X4.4685Y-3.0
X4.4685Y-3.1
X4.4685Y-3.2
X4.4685Y-3.3
X4.4685Y-3.4
X4.4685Y-3.5
X4.4685Y-3.6
X4.4685Y-3.7
X4.4685Y-3.8
X4.4685Y-3.9
X4.4685Y-4.0
X4.4685Y-4.1
X4.4685Y-4.2
X4.4685Y-4.3
X4.5Y-4.9
X4.5Y-5.0
X4.5Y-5.1
X4.5Y-5.2
X4.5Y-5.3
X4.5Y-5.4
X4.8937Y-4.9
X4.8937Y-5.0
X4.8937Y-5.1
X4.8937Y-5.2
X4.8937Y-5.3
X4.8937Y-5.4
X5.3Y-4.9
X5.3Y-5.0
X5.3Y-5.1
X5.3Y-5.2
X5.3Y-5.3
X5.3Y-5.4
X5.5Y-2.9
X5.5Y-3.0
X5.5Y-3.1
X5.5Y-3.2
X5.5Y-3.3
X5.5Y-3.4
X5.5Y-3.5
X5.5Y-3.6
X5.5Y-3.7
X5.5Y-3.8
X5.5Y-3.9
X5.5Y-4.0
X5.5Y-4.1
X5.5Y-4.2
X5.5Y-4.3
X5.9Y-2.9
X5.9Y-3.0
X5.9Y-3.1
X5.9Y-3.2
X5.9Y-3.3
X5.9Y-3.4
X5.9Y-3.5
X5.9Y-3.6
X5.9Y-3.7
X5.9Y-3.8
X5.9Y-3.9
X5.9Y-4.0
X5.9Y-4.1
X5.9Y-4.2
X5.9Y-4.3
X5.9Y-4.9
X5.9Y-5.0
X5.9Y-5.1
X5.9Y-5.2
X5.9Y-5.3
X5.9Y-5.4
X6.3819Y-4.7488
X6.3819Y-4.8488
X6.5Y-5.0638
X6.5Y-5.1638
X6.5Y-5.3
X6.5Y-5.4
X6.6Y-3.7
X6.6Y-3.8
X6.6Y-3.9
X6.6Y-4.0
X6.7Y-3.7
X6.7Y-3.8
X6.7Y-3.9
X6.7Y-4.0
X7.0433Y-5.0638
X7.0433Y-5.1638
X7.0433Y-5.3
X7.0433Y-5.4
X7.5Y-5.1
X7.5Y-5.2
X7.5Y-5.3
X7.5Y-5.4
T2
X6.6Y-3.0
X6.7Y-3.0
X6.8Y-3.0
X7.2Y-3.0
X7.2Y-3.4
T3
X7.2Y-4.0
X7.2Y-4.2
M30
