%TF.GenerationSoftware,KiCad,Pcbnew,9.0.2*%
%TF.CreationDate,2025-06-20T14:16:06-03:00*%
%TF.ProjectId,rome,726f6d65-2e6b-4696-9361-645f70636258,0.1*%
%TF.SameCoordinates,Original*%
%TF.FileFunction,Drillmap*%
%TF.FilePolarity,Positive*%
%FSLAX45Y45*%
G04 Gerber Fmt 4.5, Leading zero omitted, Abs format (unit mm)*
G04 Created by KiCad (PCBNEW 9.0.2) date 2025-06-20 14:16:06*
%MOMM*%
%LPD*%
G01*
G04 APERTURE LIST*
%ADD10C,0.050000*%
%ADD11C,0.200000*%
%ADD12C,0.300000*%
G04 APERTURE END LIST*
D10*
X8890000Y-6350000D02*
X19812000Y-6350000D01*
X19812000Y-14986000D01*
X8890000Y-14986000D01*
X8890000Y-6350000D01*
D11*
D12*
X9248000Y-6708000D02*
X9548000Y-7008000D01*
X9548000Y-6708000D02*
X9248000Y-7008000D01*
X9248000Y-14328000D02*
X9548000Y-14628000D01*
X9548000Y-14328000D02*
X9248000Y-14628000D01*
X19154000Y-6708000D02*
X19454000Y-7008000D01*
X19454000Y-6708000D02*
X19154000Y-7008000D01*
X19154000Y-14328000D02*
X19454000Y-14628000D01*
X19454000Y-14328000D02*
X19154000Y-14628000D01*
D11*
X9148277Y-15299984D02*
X9148277Y-15099984D01*
X9148277Y-15099984D02*
X9195896Y-15099984D01*
X9195896Y-15099984D02*
X9224467Y-15109508D01*
X9224467Y-15109508D02*
X9243515Y-15128555D01*
X9243515Y-15128555D02*
X9253039Y-15147603D01*
X9253039Y-15147603D02*
X9262563Y-15185698D01*
X9262563Y-15185698D02*
X9262563Y-15214269D01*
X9262563Y-15214269D02*
X9253039Y-15252365D01*
X9253039Y-15252365D02*
X9243515Y-15271412D01*
X9243515Y-15271412D02*
X9224467Y-15290460D01*
X9224467Y-15290460D02*
X9195896Y-15299984D01*
X9195896Y-15299984D02*
X9148277Y-15299984D01*
X9348277Y-15299984D02*
X9348277Y-15166650D01*
X9348277Y-15204746D02*
X9357801Y-15185698D01*
X9357801Y-15185698D02*
X9367324Y-15176174D01*
X9367324Y-15176174D02*
X9386372Y-15166650D01*
X9386372Y-15166650D02*
X9405420Y-15166650D01*
X9472086Y-15299984D02*
X9472086Y-15166650D01*
X9472086Y-15099984D02*
X9462563Y-15109508D01*
X9462563Y-15109508D02*
X9472086Y-15119031D01*
X9472086Y-15119031D02*
X9481610Y-15109508D01*
X9481610Y-15109508D02*
X9472086Y-15099984D01*
X9472086Y-15099984D02*
X9472086Y-15119031D01*
X9595896Y-15299984D02*
X9576848Y-15290460D01*
X9576848Y-15290460D02*
X9567324Y-15271412D01*
X9567324Y-15271412D02*
X9567324Y-15099984D01*
X9700658Y-15299984D02*
X9681610Y-15290460D01*
X9681610Y-15290460D02*
X9672086Y-15271412D01*
X9672086Y-15271412D02*
X9672086Y-15099984D01*
X9929229Y-15299984D02*
X9929229Y-15099984D01*
X9929229Y-15099984D02*
X9995896Y-15242841D01*
X9995896Y-15242841D02*
X10062563Y-15099984D01*
X10062563Y-15099984D02*
X10062563Y-15299984D01*
X10243515Y-15299984D02*
X10243515Y-15195222D01*
X10243515Y-15195222D02*
X10233991Y-15176174D01*
X10233991Y-15176174D02*
X10214944Y-15166650D01*
X10214944Y-15166650D02*
X10176848Y-15166650D01*
X10176848Y-15166650D02*
X10157801Y-15176174D01*
X10243515Y-15290460D02*
X10224467Y-15299984D01*
X10224467Y-15299984D02*
X10176848Y-15299984D01*
X10176848Y-15299984D02*
X10157801Y-15290460D01*
X10157801Y-15290460D02*
X10148277Y-15271412D01*
X10148277Y-15271412D02*
X10148277Y-15252365D01*
X10148277Y-15252365D02*
X10157801Y-15233317D01*
X10157801Y-15233317D02*
X10176848Y-15223793D01*
X10176848Y-15223793D02*
X10224467Y-15223793D01*
X10224467Y-15223793D02*
X10243515Y-15214269D01*
X10338753Y-15166650D02*
X10338753Y-15366650D01*
X10338753Y-15176174D02*
X10357801Y-15166650D01*
X10357801Y-15166650D02*
X10395896Y-15166650D01*
X10395896Y-15166650D02*
X10414944Y-15176174D01*
X10414944Y-15176174D02*
X10424467Y-15185698D01*
X10424467Y-15185698D02*
X10433991Y-15204746D01*
X10433991Y-15204746D02*
X10433991Y-15261888D01*
X10433991Y-15261888D02*
X10424467Y-15280936D01*
X10424467Y-15280936D02*
X10414944Y-15290460D01*
X10414944Y-15290460D02*
X10395896Y-15299984D01*
X10395896Y-15299984D02*
X10357801Y-15299984D01*
X10357801Y-15299984D02*
X10338753Y-15290460D01*
X10519705Y-15280936D02*
X10529229Y-15290460D01*
X10529229Y-15290460D02*
X10519705Y-15299984D01*
X10519705Y-15299984D02*
X10510182Y-15290460D01*
X10510182Y-15290460D02*
X10519705Y-15280936D01*
X10519705Y-15280936D02*
X10519705Y-15299984D01*
X10519705Y-15176174D02*
X10529229Y-15185698D01*
X10529229Y-15185698D02*
X10519705Y-15195222D01*
X10519705Y-15195222D02*
X10510182Y-15185698D01*
X10510182Y-15185698D02*
X10519705Y-15176174D01*
X10519705Y-15176174D02*
X10519705Y-15195222D01*
X8687500Y-15528500D02*
X8887500Y-15728500D01*
X8887500Y-15528500D02*
X8687500Y-15728500D01*
X9129229Y-15519984D02*
X9253039Y-15519984D01*
X9253039Y-15519984D02*
X9186372Y-15596174D01*
X9186372Y-15596174D02*
X9214944Y-15596174D01*
X9214944Y-15596174D02*
X9233991Y-15605698D01*
X9233991Y-15605698D02*
X9243515Y-15615222D01*
X9243515Y-15615222D02*
X9253039Y-15634269D01*
X9253039Y-15634269D02*
X9253039Y-15681888D01*
X9253039Y-15681888D02*
X9243515Y-15700936D01*
X9243515Y-15700936D02*
X9233991Y-15710460D01*
X9233991Y-15710460D02*
X9214944Y-15719984D01*
X9214944Y-15719984D02*
X9157801Y-15719984D01*
X9157801Y-15719984D02*
X9138753Y-15710460D01*
X9138753Y-15710460D02*
X9129229Y-15700936D01*
X9338753Y-15700936D02*
X9348277Y-15710460D01*
X9348277Y-15710460D02*
X9338753Y-15719984D01*
X9338753Y-15719984D02*
X9329229Y-15710460D01*
X9329229Y-15710460D02*
X9338753Y-15700936D01*
X9338753Y-15700936D02*
X9338753Y-15719984D01*
X9472086Y-15519984D02*
X9491134Y-15519984D01*
X9491134Y-15519984D02*
X9510182Y-15529508D01*
X9510182Y-15529508D02*
X9519705Y-15539031D01*
X9519705Y-15539031D02*
X9529229Y-15558079D01*
X9529229Y-15558079D02*
X9538753Y-15596174D01*
X9538753Y-15596174D02*
X9538753Y-15643793D01*
X9538753Y-15643793D02*
X9529229Y-15681888D01*
X9529229Y-15681888D02*
X9519705Y-15700936D01*
X9519705Y-15700936D02*
X9510182Y-15710460D01*
X9510182Y-15710460D02*
X9491134Y-15719984D01*
X9491134Y-15719984D02*
X9472086Y-15719984D01*
X9472086Y-15719984D02*
X9453039Y-15710460D01*
X9453039Y-15710460D02*
X9443515Y-15700936D01*
X9443515Y-15700936D02*
X9433991Y-15681888D01*
X9433991Y-15681888D02*
X9424467Y-15643793D01*
X9424467Y-15643793D02*
X9424467Y-15596174D01*
X9424467Y-15596174D02*
X9433991Y-15558079D01*
X9433991Y-15558079D02*
X9443515Y-15539031D01*
X9443515Y-15539031D02*
X9453039Y-15529508D01*
X9453039Y-15529508D02*
X9472086Y-15519984D01*
X9662563Y-15519984D02*
X9681610Y-15519984D01*
X9681610Y-15519984D02*
X9700658Y-15529508D01*
X9700658Y-15529508D02*
X9710182Y-15539031D01*
X9710182Y-15539031D02*
X9719705Y-15558079D01*
X9719705Y-15558079D02*
X9729229Y-15596174D01*
X9729229Y-15596174D02*
X9729229Y-15643793D01*
X9729229Y-15643793D02*
X9719705Y-15681888D01*
X9719705Y-15681888D02*
X9710182Y-15700936D01*
X9710182Y-15700936D02*
X9700658Y-15710460D01*
X9700658Y-15710460D02*
X9681610Y-15719984D01*
X9681610Y-15719984D02*
X9662563Y-15719984D01*
X9662563Y-15719984D02*
X9643515Y-15710460D01*
X9643515Y-15710460D02*
X9633991Y-15700936D01*
X9633991Y-15700936D02*
X9624467Y-15681888D01*
X9624467Y-15681888D02*
X9614944Y-15643793D01*
X9614944Y-15643793D02*
X9614944Y-15596174D01*
X9614944Y-15596174D02*
X9624467Y-15558079D01*
X9624467Y-15558079D02*
X9633991Y-15539031D01*
X9633991Y-15539031D02*
X9643515Y-15529508D01*
X9643515Y-15529508D02*
X9662563Y-15519984D01*
X9853039Y-15519984D02*
X9872086Y-15519984D01*
X9872086Y-15519984D02*
X9891134Y-15529508D01*
X9891134Y-15529508D02*
X9900658Y-15539031D01*
X9900658Y-15539031D02*
X9910182Y-15558079D01*
X9910182Y-15558079D02*
X9919705Y-15596174D01*
X9919705Y-15596174D02*
X9919705Y-15643793D01*
X9919705Y-15643793D02*
X9910182Y-15681888D01*
X9910182Y-15681888D02*
X9900658Y-15700936D01*
X9900658Y-15700936D02*
X9891134Y-15710460D01*
X9891134Y-15710460D02*
X9872086Y-15719984D01*
X9872086Y-15719984D02*
X9853039Y-15719984D01*
X9853039Y-15719984D02*
X9833991Y-15710460D01*
X9833991Y-15710460D02*
X9824467Y-15700936D01*
X9824467Y-15700936D02*
X9814944Y-15681888D01*
X9814944Y-15681888D02*
X9805420Y-15643793D01*
X9805420Y-15643793D02*
X9805420Y-15596174D01*
X9805420Y-15596174D02*
X9814944Y-15558079D01*
X9814944Y-15558079D02*
X9824467Y-15539031D01*
X9824467Y-15539031D02*
X9833991Y-15529508D01*
X9833991Y-15529508D02*
X9853039Y-15519984D01*
X10005420Y-15719984D02*
X10005420Y-15586650D01*
X10005420Y-15605698D02*
X10014944Y-15596174D01*
X10014944Y-15596174D02*
X10033991Y-15586650D01*
X10033991Y-15586650D02*
X10062563Y-15586650D01*
X10062563Y-15586650D02*
X10081610Y-15596174D01*
X10081610Y-15596174D02*
X10091134Y-15615222D01*
X10091134Y-15615222D02*
X10091134Y-15719984D01*
X10091134Y-15615222D02*
X10100658Y-15596174D01*
X10100658Y-15596174D02*
X10119705Y-15586650D01*
X10119705Y-15586650D02*
X10148277Y-15586650D01*
X10148277Y-15586650D02*
X10167325Y-15596174D01*
X10167325Y-15596174D02*
X10176848Y-15615222D01*
X10176848Y-15615222D02*
X10176848Y-15719984D01*
X10272086Y-15719984D02*
X10272086Y-15586650D01*
X10272086Y-15605698D02*
X10281610Y-15596174D01*
X10281610Y-15596174D02*
X10300658Y-15586650D01*
X10300658Y-15586650D02*
X10329229Y-15586650D01*
X10329229Y-15586650D02*
X10348277Y-15596174D01*
X10348277Y-15596174D02*
X10357801Y-15615222D01*
X10357801Y-15615222D02*
X10357801Y-15719984D01*
X10357801Y-15615222D02*
X10367325Y-15596174D01*
X10367325Y-15596174D02*
X10386372Y-15586650D01*
X10386372Y-15586650D02*
X10414944Y-15586650D01*
X10414944Y-15586650D02*
X10433991Y-15596174D01*
X10433991Y-15596174D02*
X10443515Y-15615222D01*
X10443515Y-15615222D02*
X10443515Y-15719984D01*
X10833991Y-15510460D02*
X10662563Y-15767603D01*
X11091134Y-15519984D02*
X11110182Y-15519984D01*
X11110182Y-15519984D02*
X11129229Y-15529508D01*
X11129229Y-15529508D02*
X11138753Y-15539031D01*
X11138753Y-15539031D02*
X11148277Y-15558079D01*
X11148277Y-15558079D02*
X11157801Y-15596174D01*
X11157801Y-15596174D02*
X11157801Y-15643793D01*
X11157801Y-15643793D02*
X11148277Y-15681888D01*
X11148277Y-15681888D02*
X11138753Y-15700936D01*
X11138753Y-15700936D02*
X11129229Y-15710460D01*
X11129229Y-15710460D02*
X11110182Y-15719984D01*
X11110182Y-15719984D02*
X11091134Y-15719984D01*
X11091134Y-15719984D02*
X11072087Y-15710460D01*
X11072087Y-15710460D02*
X11062563Y-15700936D01*
X11062563Y-15700936D02*
X11053039Y-15681888D01*
X11053039Y-15681888D02*
X11043515Y-15643793D01*
X11043515Y-15643793D02*
X11043515Y-15596174D01*
X11043515Y-15596174D02*
X11053039Y-15558079D01*
X11053039Y-15558079D02*
X11062563Y-15539031D01*
X11062563Y-15539031D02*
X11072087Y-15529508D01*
X11072087Y-15529508D02*
X11091134Y-15519984D01*
X11243515Y-15700936D02*
X11253039Y-15710460D01*
X11253039Y-15710460D02*
X11243515Y-15719984D01*
X11243515Y-15719984D02*
X11233991Y-15710460D01*
X11233991Y-15710460D02*
X11243515Y-15700936D01*
X11243515Y-15700936D02*
X11243515Y-15719984D01*
X11443515Y-15719984D02*
X11329229Y-15719984D01*
X11386372Y-15719984D02*
X11386372Y-15519984D01*
X11386372Y-15519984D02*
X11367325Y-15548555D01*
X11367325Y-15548555D02*
X11348277Y-15567603D01*
X11348277Y-15567603D02*
X11329229Y-15577127D01*
X11633991Y-15719984D02*
X11519706Y-15719984D01*
X11576848Y-15719984D02*
X11576848Y-15519984D01*
X11576848Y-15519984D02*
X11557801Y-15548555D01*
X11557801Y-15548555D02*
X11538753Y-15567603D01*
X11538753Y-15567603D02*
X11519706Y-15577127D01*
X11748277Y-15605698D02*
X11729229Y-15596174D01*
X11729229Y-15596174D02*
X11719706Y-15586650D01*
X11719706Y-15586650D02*
X11710182Y-15567603D01*
X11710182Y-15567603D02*
X11710182Y-15558079D01*
X11710182Y-15558079D02*
X11719706Y-15539031D01*
X11719706Y-15539031D02*
X11729229Y-15529508D01*
X11729229Y-15529508D02*
X11748277Y-15519984D01*
X11748277Y-15519984D02*
X11786372Y-15519984D01*
X11786372Y-15519984D02*
X11805420Y-15529508D01*
X11805420Y-15529508D02*
X11814944Y-15539031D01*
X11814944Y-15539031D02*
X11824467Y-15558079D01*
X11824467Y-15558079D02*
X11824467Y-15567603D01*
X11824467Y-15567603D02*
X11814944Y-15586650D01*
X11814944Y-15586650D02*
X11805420Y-15596174D01*
X11805420Y-15596174D02*
X11786372Y-15605698D01*
X11786372Y-15605698D02*
X11748277Y-15605698D01*
X11748277Y-15605698D02*
X11729229Y-15615222D01*
X11729229Y-15615222D02*
X11719706Y-15624746D01*
X11719706Y-15624746D02*
X11710182Y-15643793D01*
X11710182Y-15643793D02*
X11710182Y-15681888D01*
X11710182Y-15681888D02*
X11719706Y-15700936D01*
X11719706Y-15700936D02*
X11729229Y-15710460D01*
X11729229Y-15710460D02*
X11748277Y-15719984D01*
X11748277Y-15719984D02*
X11786372Y-15719984D01*
X11786372Y-15719984D02*
X11805420Y-15710460D01*
X11805420Y-15710460D02*
X11814944Y-15700936D01*
X11814944Y-15700936D02*
X11824467Y-15681888D01*
X11824467Y-15681888D02*
X11824467Y-15643793D01*
X11824467Y-15643793D02*
X11814944Y-15624746D01*
X11814944Y-15624746D02*
X11805420Y-15615222D01*
X11805420Y-15615222D02*
X11786372Y-15605698D01*
X12014944Y-15719984D02*
X11900658Y-15719984D01*
X11957801Y-15719984D02*
X11957801Y-15519984D01*
X11957801Y-15519984D02*
X11938753Y-15548555D01*
X11938753Y-15548555D02*
X11919706Y-15567603D01*
X11919706Y-15567603D02*
X11900658Y-15577127D01*
X12091134Y-15519984D02*
X12091134Y-15558079D01*
X12167325Y-15519984D02*
X12167325Y-15558079D01*
X12462563Y-15796174D02*
X12453039Y-15786650D01*
X12453039Y-15786650D02*
X12433991Y-15758079D01*
X12433991Y-15758079D02*
X12424468Y-15739031D01*
X12424468Y-15739031D02*
X12414944Y-15710460D01*
X12414944Y-15710460D02*
X12405420Y-15662841D01*
X12405420Y-15662841D02*
X12405420Y-15624746D01*
X12405420Y-15624746D02*
X12414944Y-15577127D01*
X12414944Y-15577127D02*
X12424468Y-15548555D01*
X12424468Y-15548555D02*
X12433991Y-15529508D01*
X12433991Y-15529508D02*
X12453039Y-15500936D01*
X12453039Y-15500936D02*
X12462563Y-15491412D01*
X12624468Y-15586650D02*
X12624468Y-15719984D01*
X12576848Y-15510460D02*
X12529229Y-15653317D01*
X12529229Y-15653317D02*
X12653039Y-15653317D01*
X12881610Y-15719984D02*
X12881610Y-15519984D01*
X12967325Y-15719984D02*
X12967325Y-15615222D01*
X12967325Y-15615222D02*
X12957801Y-15596174D01*
X12957801Y-15596174D02*
X12938753Y-15586650D01*
X12938753Y-15586650D02*
X12910182Y-15586650D01*
X12910182Y-15586650D02*
X12891134Y-15596174D01*
X12891134Y-15596174D02*
X12881610Y-15605698D01*
X13091134Y-15719984D02*
X13072087Y-15710460D01*
X13072087Y-15710460D02*
X13062563Y-15700936D01*
X13062563Y-15700936D02*
X13053039Y-15681888D01*
X13053039Y-15681888D02*
X13053039Y-15624746D01*
X13053039Y-15624746D02*
X13062563Y-15605698D01*
X13062563Y-15605698D02*
X13072087Y-15596174D01*
X13072087Y-15596174D02*
X13091134Y-15586650D01*
X13091134Y-15586650D02*
X13119706Y-15586650D01*
X13119706Y-15586650D02*
X13138753Y-15596174D01*
X13138753Y-15596174D02*
X13148277Y-15605698D01*
X13148277Y-15605698D02*
X13157801Y-15624746D01*
X13157801Y-15624746D02*
X13157801Y-15681888D01*
X13157801Y-15681888D02*
X13148277Y-15700936D01*
X13148277Y-15700936D02*
X13138753Y-15710460D01*
X13138753Y-15710460D02*
X13119706Y-15719984D01*
X13119706Y-15719984D02*
X13091134Y-15719984D01*
X13272087Y-15719984D02*
X13253039Y-15710460D01*
X13253039Y-15710460D02*
X13243515Y-15691412D01*
X13243515Y-15691412D02*
X13243515Y-15519984D01*
X13424468Y-15710460D02*
X13405420Y-15719984D01*
X13405420Y-15719984D02*
X13367325Y-15719984D01*
X13367325Y-15719984D02*
X13348277Y-15710460D01*
X13348277Y-15710460D02*
X13338753Y-15691412D01*
X13338753Y-15691412D02*
X13338753Y-15615222D01*
X13338753Y-15615222D02*
X13348277Y-15596174D01*
X13348277Y-15596174D02*
X13367325Y-15586650D01*
X13367325Y-15586650D02*
X13405420Y-15586650D01*
X13405420Y-15586650D02*
X13424468Y-15596174D01*
X13424468Y-15596174D02*
X13433991Y-15615222D01*
X13433991Y-15615222D02*
X13433991Y-15634269D01*
X13433991Y-15634269D02*
X13338753Y-15653317D01*
X13510182Y-15710460D02*
X13529230Y-15719984D01*
X13529230Y-15719984D02*
X13567325Y-15719984D01*
X13567325Y-15719984D02*
X13586372Y-15710460D01*
X13586372Y-15710460D02*
X13595896Y-15691412D01*
X13595896Y-15691412D02*
X13595896Y-15681888D01*
X13595896Y-15681888D02*
X13586372Y-15662841D01*
X13586372Y-15662841D02*
X13567325Y-15653317D01*
X13567325Y-15653317D02*
X13538753Y-15653317D01*
X13538753Y-15653317D02*
X13519706Y-15643793D01*
X13519706Y-15643793D02*
X13510182Y-15624746D01*
X13510182Y-15624746D02*
X13510182Y-15615222D01*
X13510182Y-15615222D02*
X13519706Y-15596174D01*
X13519706Y-15596174D02*
X13538753Y-15586650D01*
X13538753Y-15586650D02*
X13567325Y-15586650D01*
X13567325Y-15586650D02*
X13586372Y-15596174D01*
X13662563Y-15796174D02*
X13672087Y-15786650D01*
X13672087Y-15786650D02*
X13691134Y-15758079D01*
X13691134Y-15758079D02*
X13700658Y-15739031D01*
X13700658Y-15739031D02*
X13710182Y-15710460D01*
X13710182Y-15710460D02*
X13719706Y-15662841D01*
X13719706Y-15662841D02*
X13719706Y-15624746D01*
X13719706Y-15624746D02*
X13710182Y-15577127D01*
X13710182Y-15577127D02*
X13700658Y-15548555D01*
X13700658Y-15548555D02*
X13691134Y-15529508D01*
X13691134Y-15529508D02*
X13672087Y-15500936D01*
X13672087Y-15500936D02*
X13662563Y-15491412D01*
X14024468Y-15796174D02*
X14014944Y-15786650D01*
X14014944Y-15786650D02*
X13995896Y-15758079D01*
X13995896Y-15758079D02*
X13986372Y-15739031D01*
X13986372Y-15739031D02*
X13976849Y-15710460D01*
X13976849Y-15710460D02*
X13967325Y-15662841D01*
X13967325Y-15662841D02*
X13967325Y-15624746D01*
X13967325Y-15624746D02*
X13976849Y-15577127D01*
X13976849Y-15577127D02*
X13986372Y-15548555D01*
X13986372Y-15548555D02*
X13995896Y-15529508D01*
X13995896Y-15529508D02*
X14014944Y-15500936D01*
X14014944Y-15500936D02*
X14024468Y-15491412D01*
X14100658Y-15586650D02*
X14100658Y-15719984D01*
X14100658Y-15605698D02*
X14110182Y-15596174D01*
X14110182Y-15596174D02*
X14129230Y-15586650D01*
X14129230Y-15586650D02*
X14157801Y-15586650D01*
X14157801Y-15586650D02*
X14176849Y-15596174D01*
X14176849Y-15596174D02*
X14186372Y-15615222D01*
X14186372Y-15615222D02*
X14186372Y-15719984D01*
X14310182Y-15719984D02*
X14291134Y-15710460D01*
X14291134Y-15710460D02*
X14281611Y-15700936D01*
X14281611Y-15700936D02*
X14272087Y-15681888D01*
X14272087Y-15681888D02*
X14272087Y-15624746D01*
X14272087Y-15624746D02*
X14281611Y-15605698D01*
X14281611Y-15605698D02*
X14291134Y-15596174D01*
X14291134Y-15596174D02*
X14310182Y-15586650D01*
X14310182Y-15586650D02*
X14338753Y-15586650D01*
X14338753Y-15586650D02*
X14357801Y-15596174D01*
X14357801Y-15596174D02*
X14367325Y-15605698D01*
X14367325Y-15605698D02*
X14376849Y-15624746D01*
X14376849Y-15624746D02*
X14376849Y-15681888D01*
X14376849Y-15681888D02*
X14367325Y-15700936D01*
X14367325Y-15700936D02*
X14357801Y-15710460D01*
X14357801Y-15710460D02*
X14338753Y-15719984D01*
X14338753Y-15719984D02*
X14310182Y-15719984D01*
X14433992Y-15586650D02*
X14510182Y-15586650D01*
X14462563Y-15519984D02*
X14462563Y-15691412D01*
X14462563Y-15691412D02*
X14472087Y-15710460D01*
X14472087Y-15710460D02*
X14491134Y-15719984D01*
X14491134Y-15719984D02*
X14510182Y-15719984D01*
X14729230Y-15586650D02*
X14729230Y-15786650D01*
X14729230Y-15596174D02*
X14748277Y-15586650D01*
X14748277Y-15586650D02*
X14786373Y-15586650D01*
X14786373Y-15586650D02*
X14805420Y-15596174D01*
X14805420Y-15596174D02*
X14814944Y-15605698D01*
X14814944Y-15605698D02*
X14824468Y-15624746D01*
X14824468Y-15624746D02*
X14824468Y-15681888D01*
X14824468Y-15681888D02*
X14814944Y-15700936D01*
X14814944Y-15700936D02*
X14805420Y-15710460D01*
X14805420Y-15710460D02*
X14786373Y-15719984D01*
X14786373Y-15719984D02*
X14748277Y-15719984D01*
X14748277Y-15719984D02*
X14729230Y-15710460D01*
X14938753Y-15719984D02*
X14919706Y-15710460D01*
X14919706Y-15710460D02*
X14910182Y-15691412D01*
X14910182Y-15691412D02*
X14910182Y-15519984D01*
X15100658Y-15719984D02*
X15100658Y-15615222D01*
X15100658Y-15615222D02*
X15091134Y-15596174D01*
X15091134Y-15596174D02*
X15072087Y-15586650D01*
X15072087Y-15586650D02*
X15033992Y-15586650D01*
X15033992Y-15586650D02*
X15014944Y-15596174D01*
X15100658Y-15710460D02*
X15081611Y-15719984D01*
X15081611Y-15719984D02*
X15033992Y-15719984D01*
X15033992Y-15719984D02*
X15014944Y-15710460D01*
X15014944Y-15710460D02*
X15005420Y-15691412D01*
X15005420Y-15691412D02*
X15005420Y-15672365D01*
X15005420Y-15672365D02*
X15014944Y-15653317D01*
X15014944Y-15653317D02*
X15033992Y-15643793D01*
X15033992Y-15643793D02*
X15081611Y-15643793D01*
X15081611Y-15643793D02*
X15100658Y-15634269D01*
X15167325Y-15586650D02*
X15243515Y-15586650D01*
X15195896Y-15519984D02*
X15195896Y-15691412D01*
X15195896Y-15691412D02*
X15205420Y-15710460D01*
X15205420Y-15710460D02*
X15224468Y-15719984D01*
X15224468Y-15719984D02*
X15243515Y-15719984D01*
X15386373Y-15710460D02*
X15367325Y-15719984D01*
X15367325Y-15719984D02*
X15329230Y-15719984D01*
X15329230Y-15719984D02*
X15310182Y-15710460D01*
X15310182Y-15710460D02*
X15300658Y-15691412D01*
X15300658Y-15691412D02*
X15300658Y-15615222D01*
X15300658Y-15615222D02*
X15310182Y-15596174D01*
X15310182Y-15596174D02*
X15329230Y-15586650D01*
X15329230Y-15586650D02*
X15367325Y-15586650D01*
X15367325Y-15586650D02*
X15386373Y-15596174D01*
X15386373Y-15596174D02*
X15395896Y-15615222D01*
X15395896Y-15615222D02*
X15395896Y-15634269D01*
X15395896Y-15634269D02*
X15300658Y-15653317D01*
X15567325Y-15719984D02*
X15567325Y-15519984D01*
X15567325Y-15710460D02*
X15548277Y-15719984D01*
X15548277Y-15719984D02*
X15510182Y-15719984D01*
X15510182Y-15719984D02*
X15491134Y-15710460D01*
X15491134Y-15710460D02*
X15481611Y-15700936D01*
X15481611Y-15700936D02*
X15472087Y-15681888D01*
X15472087Y-15681888D02*
X15472087Y-15624746D01*
X15472087Y-15624746D02*
X15481611Y-15605698D01*
X15481611Y-15605698D02*
X15491134Y-15596174D01*
X15491134Y-15596174D02*
X15510182Y-15586650D01*
X15510182Y-15586650D02*
X15548277Y-15586650D01*
X15548277Y-15586650D02*
X15567325Y-15596174D01*
X15643515Y-15796174D02*
X15653039Y-15786650D01*
X15653039Y-15786650D02*
X15672087Y-15758079D01*
X15672087Y-15758079D02*
X15681611Y-15739031D01*
X15681611Y-15739031D02*
X15691134Y-15710460D01*
X15691134Y-15710460D02*
X15700658Y-15662841D01*
X15700658Y-15662841D02*
X15700658Y-15624746D01*
X15700658Y-15624746D02*
X15691134Y-15577127D01*
X15691134Y-15577127D02*
X15681611Y-15548555D01*
X15681611Y-15548555D02*
X15672087Y-15529508D01*
X15672087Y-15529508D02*
X15653039Y-15500936D01*
X15653039Y-15500936D02*
X15643515Y-15491412D01*
M02*
