<?xml version="1.0" encoding="UTF-8" standalone="no"?>
<!-- Created with Inkscape (http://www.inkscape.org/) -->

<svg
   width="210mm"
   height="297mm"
   viewBox="0 0 210 297"
   version="1.1"
   id="svg1"
   inkscape:version="1.4.2 (ebf0e940, 2025-05-08)"
   sodipodi:docname="logo.svg"
   xml:space="preserve"
   xmlns:inkscape="http://www.inkscape.org/namespaces/inkscape"
   xmlns:sodipodi="http://sodipodi.sourceforge.net/DTD/sodipodi-0.dtd"
   xmlns="http://www.w3.org/2000/svg"
   xmlns:svg="http://www.w3.org/2000/svg"><sodipodi:namedview
     id="namedview1"
     pagecolor="#ffffff"
     bordercolor="#666666"
     borderopacity="1.0"
     inkscape:showpageshadow="2"
     inkscape:pageopacity="0.0"
     inkscape:pagecheckerboard="0"
     inkscape:deskcolor="#d1d1d1"
     inkscape:document-units="mm"
     inkscape:zoom="2.1558642"
     inkscape:cx="397.05655"
     inkscape:cy="469.41732"
     inkscape:window-width="5056"
     inkscape:window-height="1387"
     inkscape:window-x="0"
     inkscape:window-y="25"
     inkscape:window-maximized="0"
     inkscape:current-layer="layer1"
     showgrid="false"
     showguides="true" /><defs
     id="defs1" /><g
     inkscape:label="Layer 1"
     inkscape:groupmode="layer"
     id="layer1"><g
       id="g19"
       transform="matrix(0.24999304,0,0,0.24999304,77.803248,101.97884)"><path
         id="ellipse4-8"
         style="baseline-shift:baseline;display:inline;overflow:visible;vector-effect:none;fill:#0000d4;stroke-linejoin:round;enable-background:accumulate;stop-color:#000000"
         d="m 108.78819,152.95707 c -1.89327,0 -3.45508,1.55974 -3.45508,3.45302 0,1.45359 0.92058,2.7119 2.20503,3.21789 v 2.05466 c -0.41458,0.0474 -0.82939,0.11846 -1.2423,0.21394 -4.01899,0.92949 -7.160963,4.01337 -8.199502,7.94887 h -0.07183 v 0.0279 h -7.587651 c -1.190354,0 -2.317408,0.53446 -3.273702,1.38855 -0.956295,0.85409 -1.736327,2.12378 -1.736328,3.65404 v 9.82214 h -1.879989 c -0.48825,-1.31903 -1.764153,-2.27118 -3.242696,-2.27118 -1.893273,0 -3.455086,1.56181 -3.455086,3.45508 0,1.89328 1.561813,3.45509 3.455086,3.45509 1.428399,0 2.667818,-0.88926 3.190503,-2.13889 h 3.182235 a 1.250125,1.250125 0 0 0 1.250053,-1.25005 v -11.07219 c 10e-7,-0.67351 0.352045,-1.29969 0.90227,-1.79111 0.550226,-0.49142 1.303255,-0.75189 1.607654,-0.75189 h 8.837704 a 1.250125,1.250125 0 0 0 1.250049,-1.25005 v -0.67903 c 0.81393,-3.03111 3.2331,-5.39414 6.33605,-6.11177 3.37755,-0.78114 6.88406,0.54661 8.89662,3.3693 a 1.25,1.25 0 0 0 1.74201,0.29094 1.25,1.25 0 0 0 0.293,-1.74253 c -1.85174,-2.59713 -4.69498,-4.2175 -7.75405,-4.56716 v -2.05466 c 1.28445,-0.50599 2.20504,-1.7643 2.20504,-3.21789 0,-1.89328 -1.56182,-3.45302 -3.45509,-3.45302 z m 0,2.50011 c 0.54217,0 0.95498,0.41073 0.95498,0.95291 0,0.54217 -0.41281,0.95498 -0.95498,0.95498 -0.54217,0 -0.95498,-0.41281 -0.95498,-0.95498 0,-0.54218 0.41281,-0.95291 0.95498,-0.95291 z M 80.304142,184.967 c 0.542168,0 0.954981,0.41281 0.954981,0.95498 0,0.54218 -0.412813,0.95499 -0.954981,0.95499 -0.542168,0 -0.955497,-0.41281 -0.955497,-0.95499 0,-0.54217 0.413329,-0.95498 0.955497,-0.95498 z" /><path
         id="ellipse5"
         style="baseline-shift:baseline;display:inline;overflow:visible;vector-effect:none;fill:#0000d4;stroke-linejoin:round;enable-background:accumulate;stop-color:#000000"
         d="m 103.61228,170.00564 a 1.25,1.25 0 0 0 -1.24954,1.25006 1.25,1.25 0 0 0 1.24954,1.25005 h 23.69158 c 0.29291,0 1.03322,0.32376 1.59163,0.88677 0.55842,0.56301 0.87695,1.31456 0.87695,1.58026 v 11.04687 a 1.250125,1.250125 0 0 0 1.25005,1.25006 h 3.0763 c 0.53016,1.2332 1.76111,2.10736 3.17759,2.10736 1.89327,0 3.45508,-1.56181 3.45508,-3.45509 0,-1.89327 -1.56181,-3.45508 -3.45508,-3.45508 -1.49018,0 -2.77503,0.96752 -3.25459,2.3027 h -1.74924 v -9.79682 c 0,-1.3387 -0.71604,-2.44507 -1.60352,-3.33985 -0.88748,-0.89478 -2.00615,-1.62729 -3.36517,-1.62729 z m 33.6641,14.96136 c 0.54217,0 0.95549,0.41281 0.95549,0.95498 0,0.54218 -0.41332,0.95499 -0.95549,0.95499 -0.54217,0 -0.95499,-0.41281 -0.95499,-0.95499 0,-0.54217 0.41282,-0.95498 0.95499,-0.95498 z" /><path
         id="rect5"
         style="fill:#0000d4;fill-opacity:1;stroke:none;stroke-width:0.111;stroke-dasharray:none"
         d="m 99.544832,191.06017 c -0.721402,0 -1.30173,0.58085 -1.30173,1.30225 v 4.07107 c 0,0.7214 0.580328,1.30224 1.30173,1.30224 h 18.650538 c 0.7214,0 1.30173,-0.58084 1.30173,-1.30224 v -4.07107 c 0,-0.7214 -0.58033,-1.30225 -1.30173,-1.30225 z m 0.807178,2.18643 h 4.14497 v 2.22622 h -4.14497 z m 6.36912,0 h 4.14497 v 2.22622 h -4.14497 z m 6.36861,0 h 4.14496 v 2.22622 h -4.14496 z" /><path
         style="baseline-shift:baseline;display:inline;overflow:visible;vector-effect:none;fill:#0000d4;stroke-linejoin:round;enable-background:accumulate;stop-color:#000000"
         d="m 97.171097,178.31836 c -1.893273,0 -3.455078,1.5618 -3.455078,3.45508 0,1.89327 1.561805,3.45312 3.455078,3.45312 1.893273,0 3.453123,-1.55985 3.453123,-3.45312 0,-1.89328 -1.55985,-3.45508 -3.453123,-3.45508 z m 0,2.5 c 0.542168,0 0.953125,0.4129 0.953125,0.95508 0,0.54217 -0.410957,0.95312 -0.953125,0.95312 -0.542168,0 -0.955078,-0.41095 -0.955078,-0.95312 0,-0.54218 0.41291,-0.95508 0.955078,-0.95508 z"
         id="path4-1" /><path
         style="baseline-shift:baseline;display:inline;overflow:visible;vector-effect:none;fill:#0000d4;stroke-linejoin:round;enable-background:accumulate;stop-color:#000000"
         d="m 120.40547,178.31836 c -1.89327,0 -3.45313,1.5618 -3.45313,3.45508 0,1.89327 1.55986,3.45312 3.45313,3.45312 1.89327,0 3.45508,-1.55985 3.45508,-3.45312 0,-1.89328 -1.56181,-3.45508 -3.45508,-3.45508 z m 0,2.5 c 0.54217,0 0.95508,0.4129 0.95508,0.95508 0,0.54217 -0.41291,0.95312 -0.95508,0.95312 -0.54217,0 -0.95313,-0.41095 -0.95313,-0.95312 0,-0.54218 0.41096,-0.95508 0.95313,-0.95508 z"
         id="ellipse4" /><path
         style="baseline-shift:baseline;display:inline;overflow:visible;vector-effect:none;fill:#0000d4;stroke-linecap:round;stroke-linejoin:round;enable-background:accumulate;stop-color:#000000"
         d="m 86.676956,188.85156 a 1.25,1.25 0 0 0 -1.25,1.25 v 8.99805 c 0,2.68269 2.117979,5.11914 4.882813,5.11914 h 37.251951 c 2.63071,0 4.71094,-2.24574 4.71094,-4.94727 v -9.16992 a 1.25,1.25 0 0 0 -1.25,-1.25 1.25,1.25 0 0 0 -1.25,1.25 v 9.16992 c 0,1.50161 -0.94633,2.44727 -2.21094,2.44727 H 90.309769 c -1.15505,0 -2.382813,-1.34675 -2.382813,-2.61914 v -8.99805 a 1.25,1.25 0 0 0 -1.25,-1.25 z"
         id="path7" /><path
         style="baseline-shift:baseline;display:inline;overflow:visible;vector-effect:none;fill:#0000d4;stroke-linecap:round;stroke-linejoin:round;enable-background:accumulate;stop-color:#000000"
         d="m 99.442581,205.91797 a 1.25,1.25 0 0 0 -1.251953,1.24609 1.25,1.25 0 0 0 1.248047,1.25391 l 18.746095,0.0391 a 1.25,1.25 0 0 0 1.25195,-1.24805 1.25,1.25 0 0 0 -1.2461,-1.25195 z"
         id="path10" /><path
         style="baseline-shift:baseline;display:inline;overflow:visible;vector-effect:none;fill:#0000d4;stroke-linecap:round;stroke-linejoin:round;enable-background:accumulate;stop-color:#000000"
         d="m 101.56953,210.10937 a 1.25,1.25 0 0 0 -1.25391,1.2461 1.25,1.25 0 0 0 1.24805,1.2539 l 14.49414,0.0391 a 1.25,1.25 0 0 0 1.25391,-1.2461 1.25,1.25 0 0 0 -1.2461,-1.2539 z"
         id="path11" /><path
         style="baseline-shift:baseline;display:inline;overflow:visible;vector-effect:none;fill:#0000d4;stroke-linecap:round;stroke-linejoin:round;enable-background:accumulate;stop-color:#000000"
         d="m 101.56953,214.30273 a 1.25,1.25 0 0 0 -1.25391,1.2461 1.25,1.25 0 0 0 1.24805,1.2539 l 14.49414,0.0391 a 1.25,1.25 0 0 0 1.25391,-1.2461 1.25,1.25 0 0 0 -1.2461,-1.2539 z"
         id="path12" /><g
         id="g16"
         style="fill:#0000d4"><path
           style="baseline-shift:baseline;display:inline;overflow:visible;opacity:1;vector-effect:none;fill:#0000d4;stroke-linecap:round;stroke-linejoin:round;enable-background:accumulate;stop-color:#000000;stop-opacity:1"
           d="m 108.79102,146.93555 c -21.60636,0 -39.154301,17.54794 -39.154301,39.15429 0,21.60636 17.547941,39.1543 39.154301,39.1543 21.60635,0 39.15234,-17.54794 39.15234,-39.1543 0,-21.60635 -17.54599,-39.15429 -39.15234,-39.15429 z m 0,3 c 19.98503,0 36.15234,16.16926 36.15234,36.15429 0,19.98504 -16.16731,36.1543 -36.15234,36.1543 -19.98504,0 -36.154301,-16.16926 -36.154301,-36.1543 0,-19.98503 16.169261,-36.15429 36.154301,-36.15429 z"
           id="path14" /><path
           style="baseline-shift:baseline;display:inline;overflow:visible;opacity:1;vector-effect:none;fill:#0000d4;stroke-linecap:square;enable-background:accumulate;stop-color:#000000;stop-opacity:1"
           d="m 73.466797,210.625 -2.841797,2.1543 1.076172,1.41992 c 2.470792,3.25994 5.361578,6.18106 8.595703,8.68555 l 1.410156,1.09179 2.181641,-2.82031 -1.408203,-1.0918 c -2.986329,-2.31259 -5.656019,-5.00741 -7.9375,-8.01758 z"
           id="circle14" /><path
           style="baseline-shift:baseline;display:inline;overflow:visible;opacity:1;vector-effect:none;fill:#0000d4;stroke-linecap:round;stroke-linejoin:round;enable-background:accumulate;stop-color:#000000;stop-opacity:1"
           d="m 108.79102,130.37109 c -30.745738,0 -55.718754,24.97302 -55.718754,55.71875 0,30.74574 24.973016,55.71875 55.718754,55.71875 30.74573,0 55.71679,-24.97301 55.71679,-55.71875 0,-30.74573 -24.97106,-55.71875 -55.71679,-55.71875 z m 0,4.5 c 28.31375,0 51.21679,22.905 51.21679,51.21875 0,28.31376 -22.90304,51.21875 -51.21679,51.21875 -28.313758,0 -51.218754,-22.90499 -51.218754,-51.21875 0,-28.31375 22.904996,-51.21875 51.218754,-51.21875 z"
           id="circle15" /><path
           style="baseline-shift:baseline;display:inline;overflow:visible;opacity:1;vector-effect:none;fill:#0000d4;stroke-linecap:square;enable-background:accumulate;stop-color:#000000;stop-opacity:1"
           d="m 144.375,210.24414 -1.0625,1.43359 c -2.21887,2.99379 -4.81702,5.68642 -7.73047,8.00977 l -1.39453,1.11133 2.22461,2.78711 1.39258,-1.11133 c 3.15519,-2.51614 5.97006,-5.43163 8.37304,-8.67383 l 1.0625,-1.43359 z"
           id="path15" /></g><path
         style="font-weight:bold;font-stretch:condensed;font-size:11.5941px;line-height:1.25;font-family:'Arial Narrow';-inkscape-font-specification:'Arial Narrow Bold Condensed';font-variant-ligatures:none;letter-spacing:-0.145521px;fill:#0000d4;stroke-width:0.483086"
         d="m 74.311978,208.75846 -7.22161,4.08982 -1.425577,-2.51722 q -0.546797,-0.96551 -0.584096,-1.49089 -0.04223,-0.52259 0.289881,-1.062 0.32718,-0.53661 0.997125,-0.91602 0.847283,-0.47985 1.596071,-0.36391 0.745999,0.11101 1.303049,0.78445 0.05826,-0.54046 0.246024,-0.97861 0.182842,-0.43535 0.784624,-1.34869 l 1.001547,-1.51708 0.806246,1.42363 -1.080413,1.75693 q -0.58718,0.95061 -0.704148,1.23805 -0.121895,0.29024 -0.0947,0.52207 0.02227,0.23461 0.25661,0.6484 l 0.139489,0.24631 3.014751,-1.70735 z m -4.842577,1.16805 -0.50216,-0.8867 q -0.460314,-0.8128 -0.654819,-0.99541 -0.199431,-0.17983 -0.494292,-0.19501 -0.29486,-0.0152 -0.654463,0.18848 -0.344824,0.19528 -0.473605,0.45038 -0.133707,0.25789 -0.07861,0.53898 0.04067,0.19817 0.4954,1.00112 l 0.530058,0.93595 z m -2.161144,-5.41252 q -1.395512,0.50251 -2.443355,0.41652 -1.055087,-0.0894 -1.736924,-0.59601 -0.681836,-0.50661 -1.023236,-1.4547 -0.494837,-1.37421 0.243749,-2.61492 0.736667,-1.24605 2.675471,-1.94419 1.960108,-0.70581 3.392561,-0.1867 1.264342,0.4533 1.761098,1.83283 0.500591,1.39019 -0.17387,2.54163 -0.77267,1.31315 -2.695494,2.00554 z M 66.7755,203.20158 q 1.347574,-0.48525 1.839899,-1.24017 0.486999,-0.75299 0.214647,-1.50934 -0.27427,-0.76167 -1.120358,-1.02261 -0.851414,-0.25901 -2.236273,0.23966 -1.358228,0.48908 -1.831593,1.21311 -0.475283,0.71869 -0.191423,1.50699 0.28386,0.78831 1.117377,1.04775 0.833517,0.25944 2.207724,-0.23539 z m -6.212897,-5.75318 -0.476715,-2.68097 q -0.195245,-1.09803 -0.07388,-1.57961 0.121368,-0.48158 0.574069,-0.87833 0.452701,-0.39674 1.093683,-0.51072 0.590818,-0.10505 1.116742,0.0717 0.52035,0.17772 0.823206,0.55512 0.105756,-0.63405 0.559075,-1.05966 0.452329,-0.43118 1.188064,-0.562 0.891801,-0.15858 1.586801,0.16059 0.689427,0.32016 0.938409,0.87964 0.172677,0.38904 0.436308,1.87166 l 0.405356,2.27966 z m 1.120151,-1.59067 1.889503,-0.33598 -0.158575,-0.8918 q -0.142717,-0.80262 -0.204283,-0.98717 -0.117185,-0.33567 -0.385971,-0.48912 -0.27436,-0.15247 -0.681244,-0.0801 -0.362293,0.0644 -0.556502,0.26571 -0.200773,0.1967 -0.215876,0.43513 -0.01609,0.23286 0.174196,1.30302 z m 3.249498,-0.57781 2.184911,-0.38851 -0.222996,-1.25409 q -0.146681,-0.82492 -0.271913,-1.04415 -0.130806,-0.21824 -0.409375,-0.3297 -0.285135,-0.11605 -0.675297,-0.0467 -0.401311,0.0713 -0.626979,0.28973 -0.232234,0.21379 -0.276442,0.5149 -0.05077,0.29653 0.103837,1.16604 z m -1.391139,-5.62364 q -1.4832,0.009 -2.442673,-0.4205 -0.96517,-0.43548 -1.439507,-1.14015 -0.474338,-0.70467 -0.480701,-1.71234 -0.0092,-1.46055 1.100217,-2.38469 1.109404,-0.92979 3.170033,-0.94281 2.083273,-0.0131 3.261263,0.95315 1.041373,0.84828 1.050632,2.3145 0.0093,1.47754 -1.009926,2.33883 -1.165692,0.9811 -3.209338,0.99401 z m -0.06555,-1.41491 q 1.432251,-0.009 2.147775,-0.55705 0.709863,-0.54796 0.704787,-1.35184 -0.0051,-0.80953 -0.716106,-1.3372 -0.716655,-0.52764 -2.188533,-0.51834 -1.443573,0.009 -2.130934,0.53429 -0.687398,0.51952 -0.682107,1.35736 0.0053,0.83784 0.704927,1.35992 0.699636,0.52208 2.160191,0.51286 z m -4.706051,-1.13651 -1.696699,-0.62901 -0.0093,-1.46622 1.700738,1.26871 z m 9.212535,-6.51875 -6.817317,-1.03423 -0.303135,1.99818 -1.38809,-0.21058 0.810906,-5.34527 1.388091,0.21058 -0.302286,1.99258 6.817317,1.03423 z m 0.747014,-4.01942 -8.041954,-2.05066 0.338513,-1.32753 8.041954,2.05067 z m -0.729939,-7.63549 0.952482,-1.06211 q 1.192453,0.78389 1.539756,1.68997 0.342008,0.90407 -0.03249,1.89426 -0.470626,1.24436 -1.721432,1.65496 -1.443128,0.47102 -3.322896,-0.23992 -1.985671,-0.751 -2.769787,-2.07044 -0.67991,-1.14687 -0.18325,-2.46006 0.404538,-1.06962 1.407628,-1.51339 0.71318,-0.31736 1.825258,-0.16913 l -0.109981,1.41102 q -0.67618,-0.11653 -1.147957,0.12266 -0.475069,0.2319 -0.661317,0.72435 -0.266354,0.70425 0.179657,1.38135 0.44601,0.6771 1.859807,1.21181 1.466749,0.55474 2.250497,0.35485 0.783747,-0.19989 1.046096,-0.89355 0.192256,-0.50833 -0.0594,-1.02719 -0.256948,-0.52086 -1.052675,-1.00944 z m 6.853353,-6.41037 -0.746,1.29505 -1.930241,-0.4259 -1.356365,2.35465 1.353786,1.42662 -0.729046,1.26562 -5.869027,-6.43834 0.72622,-1.26072 z m -4.108312,0.55382 -3.13485,-0.7278 2.208001,2.33681 z m 5.81372,-2.72067 -6.163288,-5.55807 3.381855,-3.7501 1.04263,0.94025 -2.464356,2.73269 1.366349,1.23218 2.289955,-2.53931 1.038426,0.93646 -2.289955,2.53931 1.677457,1.51273 2.547764,-2.82519 1.038426,0.93646 z m 4.243801,-8.16711 0.994571,-0.9144 q 1.115362,1.15666 2.13396,0.42049 0.504711,-0.36478 0.604753,-0.83523 0.09673,-0.47503 -0.185144,-0.86504 -0.165806,-0.22941 -0.382812,-0.31704 -0.217007,-0.0876 -0.496434,-0.0394 -0.282743,0.0437 -1.25227,0.37421 -0.867041,0.29835 -1.379784,0.28475 -0.512743,-0.0136 -1.005174,-0.27935 -0.491159,-0.27367 -0.832719,-0.74626 -0.397935,-0.5506 -0.468516,-1.17014 -0.06599,-0.62286 0.211993,-1.16604 0.277985,-0.54317 0.924932,-1.01074 0.972715,-0.70302 1.900075,-0.56999 0.927359,0.13303 1.669127,1.09171 l -1.071842,0.86547 q -0.464715,-0.48836 -0.863752,-0.52826 -0.399036,-0.0399 -0.848688,0.28509 -0.449651,0.32498 -0.556869,0.68885 -0.107218,0.36388 0.09507,0.64376 0.198967,0.2753 0.555166,0.30425 0.356198,0.0289 1.31246,-0.31992 1.01541,-0.36367 1.582712,-0.36157 0.568574,-0.006 1.074269,0.27831 0.50238,0.27953 0.940108,0.88518 0.633379,0.87637 0.523058,1.86414 -0.105732,0.98447 -1.252802,1.8135 -2.02802,1.46572 -3.925444,-0.67637 z m 6.940135,-1.48843 -4.1255,-7.20128 1.188752,-0.68102 4.1255,7.20128 z m 0.78747,-3.62479 1.164133,-0.68562 q 0.848155,1.36474 1.998428,0.85841 0.569955,-0.25089 0.76638,-0.68992 0.194144,-0.44421 2.78e-4,-0.88463 -0.114039,-0.25907 -0.307857,-0.39024 -0.193818,-0.13117 -0.477159,-0.14253 -0.285621,-0.0165 -1.302887,0.10342 -0.910315,0.11 -1.40882,-0.0108 -0.498504,-0.12077 -0.924294,-0.48384 -0.422889,-0.37053 -0.657809,-0.90422 -0.273693,-0.62177 -0.212852,-1.24234 0.06602,-0.62286 0.451681,-1.09571 0.385657,-0.47284 1.116237,-0.79443 1.098459,-0.48352 1.977336,-0.15907 0.878878,0.32445 1.403234,1.4173 l -1.229433,0.62159 q -0.352034,-0.57491 -0.733846,-0.69756 -0.381811,-0.12265 -0.88959,0.10087 -0.507778,0.22352 -0.688881,0.55684 -0.181103,0.33332 -0.04198,0.64938 0.136847,0.31089 0.479067,0.41385 0.342219,0.10296 1.350362,-0.0377 1.069079,-0.14277 1.62334,-0.0218 0.55716,0.11349 0.992073,0.49729 0.432633,0.37862 0.733695,1.06256 0.435628,0.98965 0.120723,1.93237 -0.309725,0.94043 -1.605078,1.51063 -2.290184,1.0081 -3.696485,-1.48411 z m 8.598712,-0.47543 -1.843488,-6.64432 -1.947473,0.54033 -0.375358,-1.35286 5.209627,-1.44543 0.375357,1.35286 -1.942018,0.53882 1.843489,6.64432 z m 4.008279,-1.03826 -1.04814,-8.23284 5.00935,-0.63774 0.17731,1.39273 -3.65031,0.46472 0.23236,1.82516 3.39198,-0.43184 0.17659,1.38712 -3.39197,0.43183 0.28527,2.24073 3.77385,-0.48046 0.1766,1.38712 z m 6.14167,-0.74535 0.35702,-8.29161 2.0531,0.0884 0.98946,5.70903 1.46522,-5.60333 2.05876,0.0886 -0.35702,8.29161 -1.27258,-0.0548 0.28103,-6.52696 -1.6328,6.46875 -1.32349,-0.057 -1.05942,-6.58468 -0.28104,6.52696 z m 13.77319,1.82482 -1.45885,-0.32472 -0.17063,-1.96929 -2.65245,-0.59041 -0.95666,1.71837 -1.42569,-0.31734 4.38933,-7.52539 1.42017,0.31611 z m -1.75669,-3.75486 -0.24265,-3.20907 -1.56986,2.80562 z m 2.97066,1.35809 1.30624,0.345 q -0.37323,1.56288 0.79583,2.02417 0.57927,0.22856 1.02947,0.0593 0.45228,-0.17453 0.6289,-0.62214 0.10389,-0.26331 0.0608,-0.49333 -0.0431,-0.23003 -0.23439,-0.43938 -0.18918,-0.21463 -0.99008,-0.8532 -0.71858,-0.56957 -0.98346,-1.00881 -0.26487,-0.43924 -0.30638,-0.99727 -0.0342,-0.56122 0.17985,-1.10362 0.24934,-0.63193 0.73318,-1.02527 0.48911,-0.39126 1.09647,-0.44982 0.60736,-0.0586 1.34987,0.23442 1.11641,0.4405 1.50412,1.29336 0.38771,0.85287 -0.0201,1.99435 l -1.30667,-0.43646 q 0.16093,-0.65464 -0.0205,-1.01227 -0.18144,-0.35764 -0.69752,-0.56127 -0.51607,-0.20363 -0.88037,-0.0978 -0.36429,0.10578 -0.49104,0.42701 -0.12467,0.31596 0.0429,0.63161 0.16757,0.31565 0.97679,0.93315 0.85356,0.65935 1.15752,1.13836 0.3113,0.47581 0.3445,1.05491 0.0353,0.57382 -0.239,1.26894 -0.39687,1.00582 -1.28839,1.44522 -0.88625,0.44148 -2.20277,-0.078 -2.3276,-0.91842 -1.54574,-3.67114 z m 7.26834,6.19657 4.59656,-6.91012 4.20453,2.79682 -0.7776,1.16897 -3.06383,-2.03804 -1.01902,1.53191 2.84701,1.89381 -0.77446,1.16426 -2.84701,-1.89381 -1.25104,1.88072 3.16753,2.10703 -0.77445,1.16425 z m 5.13101,3.45667 5.69732,-6.0348 1.49429,1.41073 -2.98891,4.96372 4.77547,-3.27706 1.49841,1.41461 -5.69732,6.0348 -0.92622,-0.87442 4.4848,-4.75045 -5.46864,3.82162 -0.96326,-0.90939 3.50918,-5.6715 -4.4848,4.75044 z m 12.2282,0.52199 1.62218,2.1871 q 0.66438,0.89576 0.77049,1.38093 0.10611,0.48517 -0.12218,1.04215 -0.22828,0.55699 -0.75119,0.94483 -0.48198,0.35748 -1.03153,0.43381 -0.545,0.073 -0.98437,-0.12979 0.18808,0.61468 -0.0279,1.19777 -0.2126,0.58764 -0.81281,1.03281 -0.72752,0.5396 -1.49192,0.56383 -0.75985,0.0209 -1.23218,-0.36889 -0.32804,-0.27122 -1.22513,-1.48072 l -1.37936,-1.85972 z m -0.29332,1.92327 -1.54143,1.14328 0.5396,0.72752 q 0.48565,0.65477 0.62305,0.7925 0.25456,0.24819 0.56357,0.26569 0.31356,0.0141 0.64549,-0.23207 0.29556,-0.21921 0.37963,-0.48598 0.092,-0.26558 -8e-4,-0.48574 -0.0894,-0.2156 -0.73696,-1.08862 z m -2.65089,1.96617 -1.78243,1.32203 0.75882,1.02307 q 0.49913,0.67296 0.70898,0.81334 0.2144,0.13702 0.51345,0.11257 0.30696,-0.0233 0.62525,-0.25935 0.32738,-0.24282 0.432,-0.53891 0.11253,-0.29492 0.0178,-0.58415 -0.0868,-0.28806 -0.61289,-0.99739 z m 3.00856,11.97224 -0.68357,-1.32906 1.40456,-1.39084 -1.24285,-2.41648 -1.93278,0.36383 -0.66803,-1.29886 8.59212,-1.43982 0.66545,1.29383 z m 1.76251,-3.75213 2.31145,-2.23924 -3.16074,0.58798 z m -1.58298,4.32535 7.89884,-2.54689 0.88776,2.75328 q 0.34051,1.05605 0.27092,1.57813 -0.0642,0.52035 -0.49841,0.98156 -0.42882,0.45947 -1.16159,0.69575 -0.92674,0.29881 -1.63668,0.034 -0.7082,-0.2594 -1.11775,-1.03147 -0.16621,0.51756 -0.43861,0.90875 -0.26701,0.38945 -1.04086,1.16241 l -1.28733,1.28352 -0.50208,-1.55714 1.41301,-1.50249 q 0.76708,-0.81242 0.9397,-1.07031 0.17801,-0.25964 0.1982,-0.49218 0.0256,-0.23428 -0.12036,-0.68687 l -0.0869,-0.2694 -3.29747,1.06323 z m 4.97869,-0.16586 0.31272,0.96984 q 0.28665,0.88903 0.44026,1.10716 0.159,0.21641 0.44472,0.29083 0.28572,0.0744 0.67904,-0.0524 0.37716,-0.12161 0.55482,-0.34545 0.18304,-0.22556 0.18585,-0.51199 2e-4,-0.2023 -0.28298,-1.08055 l -0.33008,-1.02372 z m 0.64987,10.44887 -0.31227,1.39205 q -1.42342,-0.10148 -2.16908,-0.72244 -0.74006,-0.6218 -0.89699,-1.66874 -0.19721,-1.31568 0.69362,-2.28498 1.02913,-1.11596 3.01664,-1.41387 2.09949,-0.3147 3.42823,0.45356 1.15351,0.66858 1.36163,2.05705 0.16952,1.13092 -0.48896,2.00814 -0.46727,0.62531 -1.51004,1.03922 l -0.59331,-1.28493 q 0.64693,-0.22863 0.94174,-0.66781 0.30125,-0.43442 0.22321,-0.95509 -0.11162,-0.74462 -0.83155,-1.11756 -0.71994,-0.37293 -2.21477,-0.14887 -1.55082,0.23246 -2.13705,0.78973 -0.58623,0.55728 -0.47629,1.2907 0.0806,0.53747 0.5536,0.86727 0.47864,0.32897 1.41164,0.36657 z m -2.85575,8.94125 0.0214,-1.4944 1.89351,-0.56732 0.039,-2.71709 -1.87694,-0.58744 0.0209,-1.46043 8.26044,2.76819 -0.0209,1.45478 z m 3.31945,-2.48319 3.09276,-0.88983 -3.06613,-0.96685 z m 4.74048,4.52755 -0.44275,2.46852 q -0.1679,0.93614 -0.4646,1.3718 -0.29213,0.44223 -0.86002,0.75449 -0.56789,0.31225 -1.40013,0.39879 -0.83223,0.0865 -2.00798,-0.12434 -1.05873,-0.18989 -1.80144,-0.57042 -0.73714,-0.37953 -1.12811,-0.82925 -0.39096,-0.44972 -0.53105,-1.01549 -0.13551,-0.5592 0.0114,-1.37832 l 0.45575,-2.54095 z m -1.62378,1.10063 -5.41067,-0.97045 -0.18189,1.01415 q -0.11694,0.65195 -0.0463,0.9637 0.0696,0.31732 0.28182,0.54518 0.21677,0.23443 0.72972,0.45296 0.51295,0.21854 1.38779,0.37545 0.90828,0.16291 1.45506,0.12869 0.54578,-0.0286 0.89466,-0.24214 0.34787,-0.20792 0.51056,-0.56985 0.12341,-0.27119 0.26933,-1.08474 z m -3.86873,5.18442 q 1.39476,0.5046 2.14613,1.24 0.75477,0.74264 0.95588,1.56793 0.20111,0.8253 -0.14171,1.77288 -0.4969,1.37346 -1.85763,1.85646 -1.36266,0.48832 -3.30042,-0.21273 -1.95905,-0.70875 -2.72975,-2.02306 -0.68338,-1.1563 -0.18456,-2.53509 0.50268,-1.38943 1.75705,-1.84469 1.43323,-0.51697 3.35501,0.1783 z m -0.42825,1.35014 q -1.34685,-0.48727 -2.20782,-0.22081 -0.85566,0.26839 -1.12914,1.02433 -0.27541,0.76126 0.20899,1.50241 0.48972,0.74308 1.87383,1.24383 1.35749,0.49111 2.18415,0.23632 0.82473,-0.24947 1.10977,-1.03735 0.28504,-0.78788 -0.19064,-1.51986 -0.47568,-0.73198 -1.84914,-1.22887 z m -3.59867,5.30425 -0.51723,1.2481 q -1.49863,-0.57966 -2.11267,0.5169 -0.30426,0.54334 -0.19697,1.01219 0.11223,0.47161 0.53209,0.70672 0.24697,0.1383 0.48071,0.12644 0.23373,-0.0119 0.46687,-0.17328 0.23807,-0.15866 0.97838,-0.86659 0.66088,-0.63562 1.1317,-0.83913 0.47082,-0.20352 1.02937,-0.16974 0.56072,0.0415 1.06949,0.32638 0.59274,0.33191 0.91756,0.86418 0.32206,0.5372 0.29856,1.14692 -0.0235,0.60973 -0.4135,1.30619 -0.58639,1.04717 -1.48358,1.31688 -0.89719,0.26971 -1.9736,-0.28764 l 0.60792,-1.23624 q 0.62712,0.24735 1.00587,0.11556 0.37875,-0.13179 0.64982,-0.61586 0.27106,-0.48407 0.21514,-0.85927 -0.0559,-0.37519 -0.35723,-0.54392 -0.29637,-0.16596 -0.63165,-0.0423 -0.33529,0.12369 -1.05583,0.84269 -0.76797,0.75732 -1.28344,0.99423 -0.5133,0.24461 -1.09161,0.19977 -0.57337,-0.0421 -1.22538,-0.40718 -0.94344,-0.5283 -1.25918,-1.47074 -0.31851,-0.93749 0.37298,-2.17236 1.22256,-2.18324 3.84541,-1.03893 z"
         id="text16"
         aria-label="ROBÓTICA E SISTEMAS EMBARCADOS" /></g></g></svg>
